STARTFONT 2.1
FONT -Monotype-Times New Roman-Regular-R-Normal--50-360-100-100-P-273-iso8859-7
SIZE 36 100 100
FONTBOUNDINGBOX 57 54 -5 -11

STARTPROPERTIES 24
FOUNDRY "Monotype"
FAMILY_NAME "Times New Roman"
WEIGHT_NAME "Regular"
SLANT "R"
SETWIDTH_NAME "Normal"
ADD_STYLE_NAME ""
PIXEL_SIZE 50
POINT_SIZE 360
RESOLUTION_X 100
RESOLUTION_Y 100
SPACING "P"
AVERAGE_WIDTH 273
CHARSET_REGISTRY "iso8859"
CHARSET_ENCODING "7"
FACE_NAME "Times New Roman ISO Latin Greek"
_DEC_DEVICE_FONTNAMES "PS=timesnewroman-latgreek"
COPYRIGHT "Copyright (c) 1993 Monotype Typography Ltd."
CAP_HEIGHT 39
X_HEIGHT 26
WEIGHT 10
QUAD_WIDTH 29
DEFAULT_CHAR 160
FONT_DESCENT 12
FONT_ASCENT 45
ENDPROPERTIES

CHARS 185

STARTCHAR space
ENCODING 32
SWIDTH 250 0
DWIDTH 13 0
BBX 0 0 0 0
BITMAP
ENDCHAR

STARTCHAR exclam
ENCODING 33
SWIDTH 271 0
DWIDTH 14 0
BBX 8 36 3 -1
BITMAP
1C
3C
7E
7E
7E
7E
7E
3E
3C
3C
3C
3C
3C
3C
3C
3C
1C
18
18
18
18
18
18
18
18
08
00
00
00
00
18
3C
7E
7E
3C
18
ENDCHAR

STARTCHAR quotedbl
ENCODING 34
SWIDTH 406 0
DWIDTH 20 0
BBX 17 14 2 21
BITMAP
381C00
7C3E00
7C3E00
7C3E00
7C3E00
7C3E00
381C00
381C00
381C00
381C00
381C00
301800
100800
100800
ENDCHAR

STARTCHAR numbersign
ENCODING 35
SWIDTH 667 0
DWIDTH 33 0
BBX 32 35 1 -4
BITMAP
001C00E0
001C00E0
001C00E0
003800E0
003800E0
003801C0
003801C0
003801C0
007001C0
00700180
7FFFFFFC
7FFFFFFC
7FFFFFFC
00E00380
00E00700
00E00700
00E00700
00E00700
01C00700
01C00E00
01C00E00
01C00E00
7FFFFFFC
7FFFFFFC
7FFFFFFC
03801C00
03801C00
07001C00
07001C00
07003800
07003800
07003800
0E003800
0E003800
0E007000
ENDCHAR

STARTCHAR dollar
ENCODING 36
SWIDTH 500 0
DWIDTH 25 0
BBX 23 40 1 -4
BITMAP
003000
00FE00
07FFC0
0F31F0
1C30F0
3C3070
383030
783010
783010
783010
7C3010
3C3000
3E3000
3FB000
1FF000
0FF000
07F800
03FE00
00FF00
003FC0
003FE0
0037F0
0033F8
0030F8
003078
00307C
00303C
40303C
40303C
60303C
603038
703078
783070
7C30E0
7F37C0
0FFF00
003000
003000
003000
003000
ENDCHAR

STARTCHAR percent
ENCODING 37
SWIDTH 823 0
DWIDTH 41 0
BBX 41 36 0 -1
BITMAP
03C000018000
0C6000030000
183000060000
383800060000
3018000C0000
301C00180000
701C00180000
701C00300000
701C00600000
701C00600000
701C00C00000
701C01800000
301C01800000
301803000000
383806000000
183006000000
0C600C000000
03801C00F000
000018031800
000030060C00
0000700E0E00
0000600C0600
0000C00C0700
0001C01C0700
0001801C0700
0003001C0700
0007001C0700
0006001C0700
000C001C0700
000C000C0700
0018000C0600
0030000E0E00
003000060C00
006000031800
00C00000E000
00C000000000
ENDCHAR

STARTCHAR ampersand
ENCODING 38
SWIDTH 771 0
DWIDTH 39 0
BBX 39 36 0 -1
BITMAP
0000F80000
0003FE0000
00070F0000
000F070000
001E038000
001E038000
003E038000
003E038000
003E038000
003E070000
003E060000
001F0E0000
001F3C0000
001FF07FF0
001FE01FC0
000FC00F00
001FC00E00
007FE00E00
00E7E00C00
01C3F01C00
0783F81800
0701F81800
0F01FC3000
1F00FC7000
1E007E6000
3E007FC000
3E003FC000
3E001F8000
3F001FC000
3F000FE004
3F801FF808
1FC03BFC18
1FE0F1FFF0
0FFFE0FFF0
07FF803FE0
01FC001F80
ENDCHAR

STARTCHAR quoteright
ENCODING 39
SWIDTH 271 0
DWIDTH 14 0
BBX 10 13 1 23
BITMAP
0C00
3F00
3F00
3F80
3F80
1980
0180
0180
0100
0300
0600
0C00
3000
ENDCHAR

STARTCHAR parenleft
ENCODING 40
SWIDTH 333 0
DWIDTH 17 0
BBX 16 46 1 -10
BITMAP
0002
000C
0018
0030
0060
00C0
0180
0380
0700
0700
0F00
0E00
1E00
1E00
1E00
3C00
3C00
3C00
3C00
7C00
7C00
7C00
7C00
7C00
7C00
7C00
7C00
7C00
3C00
3C00
3C00
3E00
1E00
1E00
1E00
0E00
0F00
0700
0380
0380
01C0
00C0
0060
0030
0008
0006
ENDCHAR

STARTCHAR parenright
ENCODING 41
SWIDTH 333 0
DWIDTH 17 0
BBX 16 46 0 -10
BITMAP
4000
3000
1800
0C00
0600
0300
0180
01C0
00E0
00E0
00F0
0070
0078
0078
003C
003C
003C
003C
003E
003E
003E
003E
003E
003E
003E
003E
003E
003E
003C
003C
003C
003C
0078
0078
0078
0070
00F0
00E0
00C0
01C0
0180
0300
0600
0C00
1800
2000
ENDCHAR

STARTCHAR asterisk
ENCODING 42
SWIDTH 500 0
DWIDTH 25 0
BBX 20 20 3 16
BITMAP
006000
00F000
00F000
00F000
30F0C0
7861E0
7C63E0
3E67C0
1FAF80
01F800
006000
07BE00
3F2FC0
7E67E0
7C63E0
3871E0
00F000
00F000
00F000
00F000
ENDCHAR

STARTCHAR plus
ENCODING 43
SWIDTH 667 0
DWIDTH 33 0
BBX 29 27 2 0
BITMAP
00070000
00070000
00070000
00070000
00070000
00070000
00070000
00070000
00070000
00070000
00070000
00070000
7FFFFFF0
7FFFFFF0
7FFFFFF0
00070000
00070000
00070000
00070000
00070000
00070000
00070000
00070000
00070000
00070000
00070000
00070000
ENDCHAR

STARTCHAR comma
ENCODING 44
SWIDTH 271 0
DWIDTH 14 0
BBX 10 13 1 -8
BITMAP
0C00
3F00
3F00
3F80
3F80
1980
0180
0180
0100
0300
0600
0C00
3000
ENDCHAR

STARTCHAR minus
ENCODING 45
SWIDTH 667 0
DWIDTH 33 0
BBX 29 3 2 12
BITMAP
7FFFFFF0
7FFFFFF0
7FFFFFF0
ENDCHAR

STARTCHAR period
ENCODING 46
SWIDTH 271 0
DWIDTH 14 0
BBX 8 6 3 -1
BITMAP
18
3C
7E
7E
3C
18
ENDCHAR

STARTCHAR slash
ENCODING 47
SWIDTH 281 0
DWIDTH 14 0
BBX 24 36 -5 -1
BITMAP
00001C
00001C
000038
000038
000070
000070
0000E0
0000E0
0001C0
0001C0
000380
000380
000700
000700
000E00
000E00
001C00
001C00
003800
003800
007000
007000
00E000
00E000
01C000
01C000
038000
038000
070000
070000
0E0000
0E0000
1C0000
1C0000
380000
380000
ENDCHAR

STARTCHAR zero
ENCODING 48
SWIDTH 500 0
DWIDTH 25 0
BBX 24 36 0 -1
BITMAP
003C00
00FF00
01C380
0381C0
0700E0
0E00F0
0E0078
1E0078
1E0078
3C003C
3C003C
3C003C
3C003E
7C003E
7C003E
7C003E
7C003E
7C003E
7C003E
7C003E
7C003E
7C003E
7C003E
3C003E
3C003C
3C003C
3E003C
1E0078
1E0078
0E0078
0F0070
0700E0
0381C0
01C380
00FF00
003C00
ENDCHAR

STARTCHAR one
ENCODING 49
SWIDTH 500 0
DWIDTH 25 0
BBX 16 35 5 0
BITMAP
00C0
03C0
0FC0
3FC0
47C0
03C0
03C0
03C0
03C0
03C0
03C0
03C0
03C0
03C0
03C0
03C0
03C0
03C0
03C0
03C0
03C0
03C0
03C0
03C0
03C0
03C0
03C0
03C0
03C0
03C0
03C0
03C0
03E0
07E0
3FFC
ENDCHAR

STARTCHAR two
ENCODING 50
SWIDTH 500 0
DWIDTH 25 0
BBX 25 35 0 0
BITMAP
00FE0000
03FF8000
07FFC000
0FFFE000
0E0FF000
1C03F000
1801F800
1000F800
2000F800
00007800
00007800
00007800
00007800
00007000
00007000
0000E000
0000E000
0001C000
0001C000
00038000
00030000
00060000
000C0000
00180000
00100000
00200000
00400000
00800000
01000200
02000200
04000C00
0FFFFC00
1FFFFC00
3FFFF800
7FFFF800
ENDCHAR

STARTCHAR three
ENCODING 51
SWIDTH 500 0
DWIDTH 25 0
BBX 22 36 1 -1
BITMAP
007C00
01FF00
07FF80
0FFFC0
0C0FE0
1807E0
1003E0
2001E0
0001E0
0001E0
0001C0
0001C0
000380
000300
000600
000F00
003F80
01FFC0
001FE0
0007F0
0001F0
0001F8
0000F8
000078
000078
000078
000078
000070
000070
000070
0000E0
0000C0
3E0180
3F8700
3FFC00
0FE000
ENDCHAR

STARTCHAR four
ENCODING 52
SWIDTH 500 0
DWIDTH 25 0
BBX 26 35 -1 0
BITMAP
00007000
0000F000
0000F000
0001F000
0003F000
0003F000
0006F000
000CF000
001CF000
0018F000
0030F000
0060F000
0060F000
00C0F000
0180F000
0380F000
0300F000
0600F000
0E00F000
0C00F000
1800F000
3000F000
3FFFFF80
3FFFFF80
3FFFFF80
3FFFFF80
0000F000
0000F000
0000F000
0000F000
0000F000
0000F000
0000F000
0000F000
0000F000
ENDCHAR

STARTCHAR five
ENCODING 53
SWIDTH 500 0
DWIDTH 25 0
BBX 22 35 1 -1
BITMAP
007FF0
00FFF0
00FFE0
01FFE0
010000
030000
030000
060000
060000
0F8000
0FF000
1FFC00
1FFE00
01FF00
003F80
000FC0
0007E0
0003E0
0001F0
0000F0
0000F0
000070
000070
000070
000070
000070
000060
0000E0
0000C0
000180
380380
7E0600
3FFC00
3FF000
078000
ENDCHAR

STARTCHAR six
ENCODING 54
SWIDTH 500 0
DWIDTH 25 0
BBX 24 36 1 -1
BITMAP
0000F8
0003C0
000F00
003C00
007800
00F000
01E000
03E000
07C000
078000
0F8000
0F0000
1F0000
1E0000
3E3F80
3EFFE0
3F83F0
3E01F0
7C00F8
7C0078
7C007C
7C007C
7C003C
7C003C
7C003C
3C003C
3C003C
3E003C
3E0038
1E0038
0F0070
0F0070
0780E0
03C1C0
01FF80
003C00
ENDCHAR

STARTCHAR seven
ENCODING 55
SWIDTH 500 0
DWIDTH 25 0
BBX 24 35 1 -1
BITMAP
0FFFFC
0FFFFC
1FFFF8
1FFFF8
380038
300030
200070
400070
000060
0000E0
0000E0
0000E0
0000C0
0001C0
0001C0
000180
000380
000380
000300
000700
000700
000600
000E00
000E00
000C00
001C00
001C00
001800
003800
003800
003800
007000
007000
007000
00E000
ENDCHAR

STARTCHAR eight
ENCODING 56
SWIDTH 500 0
DWIDTH 25 0
BBX 22 36 2 -1
BITMAP
00F800
07FE00
0F0780
1C03C0
3C01C0
3800E0
7800E0
7800E0
7800E0
7C00E0
3C01C0
3E01C0
1F0380
1F8700
0FCE00
07F800
03F800
00FC00
01FE00
033F00
061F80
0C0FC0
1C07E0
3803E0
3801F0
7800F0
7800F0
780070
780070
380070
3C0060
1C00E0
1E01C0
0F0380
03FF00
007800
ENDCHAR

STARTCHAR nine
ENCODING 57
SWIDTH 500 0
DWIDTH 25 0
BBX 24 36 0 -1
BITMAP
003C00
00FF80
0383C0
0701E0
0E00F0
0E00F8
1C0078
1C007C
3C003C
3C003C
3C003E
3C003E
3C003E
3E003E
3E003E
3E003E
1F003E
1F003E
0F807E
0FC1FC
03FF7C
01FC7C
000078
0000F8
0000F0
0001F0
0001E0
0003E0
0007C0
000780
000F00
001E00
007800
01F000
0FC000
1C0000
ENDCHAR

STARTCHAR colon
ENCODING 58
SWIDTH 271 0
DWIDTH 14 0
BBX 8 25 3 -1
BITMAP
18
3C
7E
7E
3C
18
00
00
00
00
00
00
00
00
00
00
00
00
00
18
3C
7E
7E
3C
18
ENDCHAR

STARTCHAR semicolon
ENCODING 59
SWIDTH 271 0
DWIDTH 14 0
BBX 10 32 2 -8
BITMAP
0C00
1E00
3F00
3F00
1E00
0C00
0000
0000
0000
0000
0000
0000
0000
0000
0000
0000
0000
0000
0000
1C00
3F00
3F00
3F80
3F80
1980
0180
0180
0100
0300
0600
0C00
3000
ENDCHAR

STARTCHAR less
ENCODING 60
SWIDTH 668 0
DWIDTH 33 0
BBX 29 25 2 1
BITMAP
00000010
00000070
000001F0
00000FF0
00003FC0
0001FE00
0007F800
001FE000
00FF0000
03FC0000
0FE00000
7F800000
7C000000
7F000000
3FC00000
07F00000
01FE0000
007F8000
000FF000
0003FC00
0000FF80
00001FE0
000007F0
000000F0
00000030
ENDCHAR

STARTCHAR equal
ENCODING 61
SWIDTH 667 0
DWIDTH 33 0
BBX 29 15 2 6
BITMAP
7FFFFFF0
7FFFFFF0
7FFFFFF0
00000000
00000000
00000000
00000000
00000000
00000000
00000000
00000000
00000000
7FFFFFF0
7FFFFFF0
7FFFFFF0
ENDCHAR

STARTCHAR greater
ENCODING 62
SWIDTH 667 0
DWIDTH 33 0
BBX 29 25 2 1
BITMAP
40000000
78000000
7E000000
7F800000
0FF00000
03FC0000
00FF0000
001FE000
0007F800
0000FE00
00003FC0
000007F0
000001F0
000003F0
00001FE0
00007F80
0001FC00
000FF000
003FC000
01FE0000
07F80000
3FE00000
7F000000
7C000000
60000000
ENDCHAR

STARTCHAR question
ENCODING 63
SWIDTH 385 0
DWIDTH 19 0
BBX 20 36 -1 -1
BITMAP
00F800
03FE00
0E1F00
1C0F80
1807C0
3803C0
3C03E0
3C03E0
3C03E0
3C03E0
1C03E0
0003C0
0003C0
000780
000780
000F00
000E00
000C00
001800
001800
003000
002000
002000
002000
002000
004000
000000
000000
000000
000000
006000
00F000
01F800
01F800
00F000
006000
ENDCHAR

STARTCHAR at
ENCODING 64
SWIDTH 917 0
DWIDTH 46 0
BBX 46 45 0 -10
BITMAP
00000FFC0000
00007C078000
0001C000E000
000700003800
000E00001C00
003C00000600
007000000200
00E000000300
00E000000180
01C000000080
0380000000C0
0700000000C0
070001E1C040
0E00071BC040
0E000C0B8060
0C00380F8060
1C00780F8060
1800700F0060
1800E00F0060
3801E00F0060
3801C00E0040
3003C01E0040
3003801E00C0
3007801E00C0
3007803C0080
300F003C0180
300F007C0100
300F00B80300
380F01B80600
180F03780C00
180F86781818
1807FC787010
0C07F03FC030
0C01C01F0020
060000000060
0700000000C0
030000000180
018000000380
00C000000700
006000000C00
003800003800
001E0000E000
0007C003C000
0000FFFE0000
00000FC00000
ENDCHAR

STARTCHAR A
ENCODING 65
SWIDTH 771 0
DWIDTH 39 0
BBX 40 36 0 0
BITMAP
0000100000
0000380000
0000380000
00007C0000
00007C0000
0000FC0000
0000FE0000
0000FE0000
0001BF0000
0001BF0000
00039F8000
00031F8000
00071F8000
00060FC000
000E0FC000
000C07E000
000C07E000
001803F000
001803F000
003801F000
003001F800
007001F800
007FFFFC00
007FFFFC00
00C0007E00
00C0007E00
01C0003E00
0180003F00
0380003F00
0300001F80
0300001F80
0700000FC0
0600000FC0
0F00000FE0
1F00001FF0
7FE000FFFC
ENDCHAR

STARTCHAR B
ENCODING 66
SWIDTH 667 0
DWIDTH 33 0
BBX 33 34 0 0
BITMAP
3FFFF80000
07FFFF0000
03F01FC000
01F007E000
01F003F000
01F001F800
01F001FC00
01F000FC00
01F000FC00
01F000FC00
01F000FC00
01F000FC00
01F001F800
01F001F800
01F003F000
01F00FE000
01FFFF8000
01FFFFC000
01F00FF000
01F003F800
01F001FC00
01F000FE00
01F000FE00
01F0007E00
01F0007E00
01F0007E00
01F0007E00
01F000FE00
01F000FC00
01F001FC00
01F003F800
03F00FF000
07FFFFC000
3FFFFE0000
ENDCHAR

STARTCHAR C
ENCODING 67
SWIDTH 719 0
DWIDTH 36 0
BBX 36 36 0 -1
BITMAP
00007F8080
0007FFF080
001F807F80
003E001F80
00F8000780
01F0000380
03E00001C0
03E00000C0
07C00000C0
0FC0000040
0F80000040
1F80000040
1F80000000
1F80000000
3F00000000
3F00000000
3F00000000
3F00000000
3F00000000
3F00000000
3F00000000
3F00000000
3F00000000
1F80000000
1F80000000
1F80000000
0FC0000000
0FC0000020
07E0000040
03F0000080
01F8000180
00FC000300
007F000C00
001FC07800
0007FFE000
0001FF8000
ENDCHAR

STARTCHAR D
ENCODING 68
SWIDTH 823 0
DWIDTH 41 0
BBX 41 34 0 0
BITMAP
3FFFFFC00000
07FFFFF80000
03F803FE0000
01F0007F0000
01F0001FC000
01F0000FE000
01F00007F000
01F00003F000
01F00001F800
01F00001F800
01F00000FC00
01F00000FC00
01F00000FE00
01F000007E00
01F000007E00
01F000007E00
01F000007E00
01F000007E00
01F000007E00
01F000007E00
01F000007E00
01F00000FE00
01F00000FC00
01F00000FC00
01F00001F800
01F00001F800
01F00003F000
01F00007E000
01F0000FC000
01F0001F8000
01F0007F0000
03F803FC0000
07FFFFE00000
3FFFFF000000
ENDCHAR

STARTCHAR E
ENCODING 69
SWIDTH 667 0
DWIDTH 33 0
BBX 34 34 0 0
BITMAP
3FFFFFF800
07FFFFF800
03F0003800
01F0001800
01F0000800
01F0000800
01F0000800
01F0000000
01F0000000
01F0000000
01F0000000
01F0000000
01F0004000
01F0004000
01F000C000
01FFFFC000
01FFFFC000
01F000C000
01F0004000
01F0004000
01F0004000
01F0000000
01F0000000
01F0000000
01F0000000
01F0000100
01F0000100
01F0000300
01F0000200
01F0000600
01F0000E00
03F8003C00
07FFFFFC00
3FFFFFFC00
ENDCHAR

STARTCHAR F
ENCODING 70
SWIDTH 667 0
DWIDTH 33 0
BBX 32 34 1 0
BITMAP
7FFFFFFC
0FFFFFFC
07E0003C
03E0000C
03E00004
03E00004
03E00006
03E00000
03E00000
03E00000
03E00000
03E00000
03E00080
03E00080
03E00180
03FFFF80
03FFFF80
03E00180
03E00080
03E00080
03E00000
03E00000
03E00000
03E00000
03E00000
03E00000
03E00000
03E00000
03E00000
03E00000
03E00000
07F00000
0FF80000
7FFF0000
ENDCHAR

STARTCHAR G
ENCODING 71
SWIDTH 823 0
DWIDTH 41 0
BBX 42 36 0 -1
BITMAP
00007FC02000
0003FFFC2000
000FC03FE000
003F0007E000
007C0003E000
00F80000F000
01F000007000
03E000007000
07E000003000
07C000001000
0FC000001000
0F8000000000
1F8000000000
1F8000000000
1F0000000000
3F0000000000
3F0000000000
3F00003FFF80
3F000003F800
3F000003F800
3F000001F000
3F800001F000
3F800001F000
1F800001F000
1F800001F000
1FC00001F000
0FC00001F000
07E00001F000
07F00001F000
03F80001F000
01FC0001F000
00FE0001F000
003F8007F000
000FE01FC000
0003FFFF0000
00003FF00000
ENDCHAR

STARTCHAR H
ENCODING 72
SWIDTH 823 0
DWIDTH 41 0
BBX 41 34 0 0
BITMAP
3FFF80FFFE00
07FC001FF000
03F8000FE000
01F00007C000
01F00007C000
01F00007C000
01F00007C000
01F00007C000
01F00007C000
01F00007C000
01F00007C000
01F00007C000
01F00007C000
01F00007C000
01F00007C000
01F00007C000
01FFFFFFC000
01FFFFFFC000
01F00007C000
01F00007C000
01F00007C000
01F00007C000
01F00007C000
01F00007C000
01F00007C000
01F00007C000
01F00007C000
01F00007C000
01F00007C000
01F00007C000
01F00007C000
03F8000FE000
07FC001FF000
3FFF80FFFE00
ENDCHAR

STARTCHAR I
ENCODING 73
SWIDTH 385 0
DWIDTH 19 0
BBX 19 34 0 0
BITMAP
3FFF80
07FC00
03F800
01F000
01F000
01F000
01F000
01F000
01F000
01F000
01F000
01F000
01F000
01F000
01F000
01F000
01F000
01F000
01F000
01F000
01F000
01F000
01F000
01F000
01F000
01F000
01F000
01F000
01F000
01F000
01F000
03F800
07FC00
3FFF80
ENDCHAR

STARTCHAR J
ENCODING 74
SWIDTH 438 0
DWIDTH 22 0
BBX 23 35 0 -1
BITMAP
03FFF8
007FC0
003F80
001F00
001F00
001F00
001F00
001F00
001F00
001F00
001F00
001F00
001F00
001F00
001F00
001F00
001F00
001F00
001F00
001F00
001F00
001F00
001F00
001F00
001F00
001F00
001F00
001F00
001F00
3C1E00
7E1E00
7E1C00
3F3800
3FF000
0FC000
ENDCHAR

STARTCHAR K
ENCODING 75
SWIDTH 823 0
DWIDTH 41 0
BBX 42 34 0 0
BITMAP
3FFF81FFE000
07FC007F0000
03F8003E0000
01F000780000
01F000700000
01F000E00000
01F001C00000
01F003800000
01F007000000
01F00E000000
01F01C000000
01F038000000
01F070000000
01F0E0000000
01F1C0000000
01F7C0000000
01FFE0000000
01F7F0000000
01F3F8000000
01F1FC000000
01F0FE000000
01F07F000000
01F03F800000
01F01FC00000
01F00FE00000
01F007F00000
01F003F80000
01F001FC0000
01F000FE0000
01F0007F0000
01F0003FC000
03F8003FE000
07FC007FF800
3FFF81FFFF80
ENDCHAR

STARTCHAR L
ENCODING 76
SWIDTH 667 0
DWIDTH 33 0
BBX 33 34 0 0
BITMAP
3FFF800000
07FC000000
03F8000000
01F0000000
01F0000000
01F0000000
01F0000000
01F0000000
01F0000000
01F0000000
01F0000000
01F0000000
01F0000000
01F0000000
01F0000000
01F0000000
01F0000000
01F0000000
01F0000000
01F0000000
01F0000000
01F0000000
01F0000000
01F0000000
01F0000000
01F0000100
01F0000200
01F0000200
01F0000600
01F0000E00
01F0001C00
03F8007C00
07FFFFFC00
3FFFFFF800
ENDCHAR

STARTCHAR M
ENCODING 77
SWIDTH 990 0
DWIDTH 49 0
BBX 49 34 0 0
BITMAP
3FF8000007FE00
0FF800000FF000
03FC00000FE000
03FC00001FC000
01FE00001FC000
01FE00003FC000
01BE000037C000
01BF000077C000
019F000067C000
019F8000E7C000
018F8000C7C000
018FC001C7C000
0187C00187C000
0187E00187C000
0187E00387C000
0183F00307C000
0183F00707C000
0181F80607C000
0181F80E07C000
0180FC0C07C000
0180FC1C07C000
01807E1807C000
01807E3807C000
01803F3007C000
01803F7007C000
01801F6007C000
01801FE007C000
01801FC007C000
01800FC007C000
01800FC007C000
0180078007C000
03C007800FE000
07E003001FF000
3FFC0300FFFE00
ENDCHAR

STARTCHAR N
ENCODING 78
SWIDTH 823 0
DWIDTH 41 0
BBX 43 34 -1 0
BITMAP
3FF00007FFC0
07F800007800
01FC00003000
00FE00003000
007F00003000
007F80003000
007FC0003000
006FC0003000
006FE0003000
0067F0003000
0063F8003000
0061FC003000
0060FE003000
00607F003000
00603F803000
00601F803000
00600FC03000
00600FE03000
006007F03000
006003F83000
006001FC3000
006000FE3000
0060007F3000
0060003F3000
0060001FB000
0060000FF000
0060000FF000
00600007F000
00600003F000
00600001F000
00600000F000
00F000007000
01F800003000
0FFF00001000
ENDCHAR

STARTCHAR O
ENCODING 79
SWIDTH 771 0
DWIDTH 39 0
BBX 39 36 0 -1
BITMAP
0000FE0000
0007FFE000
001F01F800
007C007C00
00F8003E00
01F0001F00
03E0000F80
07E00007C0
07C00007E0
0FC00007E0
0F800003F0
1F800003F0
1F800003F0
3F800003F8
3F000001F8
3F000001F8
3F000001F8
3F000001F8
3F000001F8
3F000001F8
3F000001F8
3F000001F8
3F800001F8
1F800003F0
1F800003F0
0F800003F0
0FC00007E0
07C00007C0
07E00007C0
03E0000F80
01F0001F00
00F8003E00
007C007C00
001F01F000
0007FFC000
0000FE0000
ENDCHAR

STARTCHAR P
ENCODING 80
SWIDTH 604 0
DWIDTH 30 0
BBX 32 34 -1 0
BITMAP
3FFFFC00
07FFFF00
03F01FC0
01F007E0
01F003F0
01F001F8
01F001FC
01F000FC
01F000FC
01F000FC
01F000FC
01F000FC
01F001FC
01F001F8
01F003F8
01F007F0
01F80FE0
01FFFF80
01F1FC00
01F00000
01F00000
01F00000
01F00000
01F00000
01F00000
01F00000
01F00000
01F00000
01F00000
01F00000
01F00000
03F80000
07FC0000
3FFF8000
ENDCHAR

STARTCHAR Q
ENCODING 81
SWIDTH 771 0
DWIDTH 39 0
BBX 39 45 0 -10
BITMAP
0000FE0000
0007FFE000
001F01F800
007C007C00
00F8003E00
01F0001F00
03E0000F80
07E00007C0
07C00007E0
0FC00007E0
0F800003F0
1F800003F0
1F800003F0
3F800003F8
3F000001F8
3F000001F8
3F000001F8
3F000001F8
3F000001F8
3F000001F8
3F000001F8
3F000001F8
1F800001F8
1F800003F0
1F800003F0
0F800003E0
0FC00007E0
07C00007C0
07E0000FC0
03E0000F80
01F0001F00
00F8003E00
007C007C00
001F81F000
0007FFC000
0001FF0000
0000FF8000
00007FC000
00003FC000
00000FE000
000003F000
000000FC00
0000003E00
0000000FC0
00000000F8
ENDCHAR

STARTCHAR R
ENCODING 82
SWIDTH 771 0
DWIDTH 39 0
BBX 38 34 1 0
BITMAP
7FFFFC0000
0FFFFF0000
07F03FC000
03E00FE000
03E007F000
03E003F000
03E003F800
03E001F800
03E001F800
03E001F800
03E001F800
03E003F800
03E003F000
03E007E000
03E00FC000
03E03F8000
03FFFE0000
03FFF80000
03E1F80000
03E0FC0000
03E07E0000
03E03F0000
03E03F8000
03E01F8000
03E00FC000
03E007E000
03E003F000
03E003F800
03E001F800
03E000FC00
03E0007E00
07F0003F80
0FF8003FC0
7FFF001FF8
ENDCHAR

STARTCHAR S
ENCODING 83
SWIDTH 552 0
DWIDTH 28 0
BBX 26 36 2 -1
BITMAP
00FE0400
03FF8C00
0F81FC00
1E007C00
1E003C00
3C001C00
3C001C00
7C000C00
7C000C00
7E000400
7E000400
3F800000
3FC00000
1FF00000
1FF80000
0FFE0000
07FF8000
01FFC000
007FF000
003FF800
000FFC00
0003FC00
0001FE00
0000FE00
40007F00
60003F00
60001F00
60001F00
70001F00
70001E00
78001E00
7C003C00
7E007C00
7F81F000
63FFE000
603F8000
ENDCHAR

STARTCHAR T
ENCODING 84
SWIDTH 667 0
DWIDTH 33 0
BBX 33 34 0 0
BITMAP
7FFFFFFF00
7FFFFFFF00
7803E00F00
7003E00700
6003E00300
4003E00100
4003E00100
4003E00100
0003E00000
0003E00000
0003E00000
0003E00000
0003E00000
0003E00000
0003E00000
0003E00000
0003E00000
0003E00000
0003E00000
0003E00000
0003E00000
0003E00000
0003E00000
0003E00000
0003E00000
0003E00000
0003E00000
0003E00000
0003E00000
0003E00000
0003E00000
0007F00000
000FF80000
007FFF0000
ENDCHAR

STARTCHAR U
ENCODING 85
SWIDTH 823 0
DWIDTH 41 0
BBX 42 35 0 -1
BITMAP
3FFF800FFF00
07FC0001F800
03F80000F000
01F000006000
01F000006000
01F000006000
01F000006000
01F000006000
01F000006000
01F000006000
01F000006000
01F000006000
01F000006000
01F000006000
01F000006000
01F000006000
01F000006000
01F000006000
01F000006000
01F000006000
01F000006000
01F000006000
01F000006000
01F000006000
01F000006000
01F000006000
01F80000E000
00F80000C000
00F80001C000
007C00018000
007E00038000
003F000E0000
001FE03C0000
0007FFF80000
0000FFC00000
ENDCHAR

STARTCHAR V
ENCODING 86
SWIDTH 719 0
DWIDTH 36 0
BBX 38 35 -1 -1
BITMAP
3FFF003FF0
0FF80007E0
07F0000780
03F0000380
01F8000700
01F8000600
00F8000600
00FC000E00
00FC000C00
007E001C00
007E001800
003E001800
003F003800
003F003000
001F803000
001F807000
000F806000
000FC0E000
000FC0C000
0007E0C000
0007E1C000
0003E18000
0003F18000
0001F38000
0001FB0000
0001FF0000
0000FE0000
0000FE0000
00007E0000
00007C0000
00007C0000
0000380000
0000380000
0000180000
0000100000
ENDCHAR

STARTCHAR W
ENCODING 87
SWIDTH 990 0
DWIDTH 49 0
BBX 51 35 -1 -1
BITMAP
7FFC3FFF00FFC0
0FF00FF8001F00
07E003F0000E00
07E003F0000C00
03F001F0000C00
03F001F8001C00
03F001F8001800
01F800F8003800
01F800FC003000
00F800FC003000
00FC00FE007000
00FC00FE006000
007C00FE006000
007E01FF00E000
007E01BF00C000
003E019F00C000
003F039F81C000
001F031F818000
001F830FC18000
001F860FC38000
000F8607C30000
000FCE07E30000
000FCC07E60000
0007CC03F60000
0007FC03FE0000
0007F801FC0000
0003F801FC0000
0003F801FC0000
0001F000F80000
0001F000F80000
0001E000F80000
0000E000700000
0000E000700000
0000C000300000
00004000200000
ENDCHAR

STARTCHAR X
ENCODING 88
SWIDTH 771 0
DWIDTH 39 0
BBX 40 34 -1 0
BITMAP
3FFFC03FFC
07FE0007E0
03FC000780
01FE000700
00FE000600
007F000C00
003F001C00
003F803800
001FC07000
000FE0E000
0007E0C000
0007F1C000
0003FB8000
0001FF0000
0000FE0000
0000FE0000
00007F0000
00003F0000
00007F8000
0000FFC000
0001CFE000
000387E000
000307F000
000603F800
000E01F800
001C01FC00
003800FE00
0070007F00
0060003F00
00C0003F80
01C0001FC0
03C0001FE0
0FC0003FF0
3FF800FFFE
ENDCHAR

STARTCHAR Y
ENCODING 89
SWIDTH 771 0
DWIDTH 39 0
BBX 41 34 -1 0
BITMAP
3FFF800FFE00
07F80001F000
03F80001E000
01F80001C000
01FC00038000
00FE00030000
007E00070000
007F00060000
003F000C0000
001F801C0000
000FC0180000
000FE0300000
0007E0700000
0003F0600000
0003F8C00000
0001F9C00000
0000FD800000
0000FF000000
00007F000000
00003E000000
00003E000000
00003E000000
00003E000000
00003E000000
00003E000000
00003E000000
00003E000000
00003E000000
00003E000000
00003E000000
00003E000000
00007F000000
0000FF800000
0007FFF00000
ENDCHAR

STARTCHAR Z
ENCODING 90
SWIDTH 667 0
DWIDTH 33 0
BBX 34 34 0 0
BITMAP
07FFFFFF00
07FFFFFE00
070001FC00
0E0001F800
0C0003F800
0C0007F000
080007E000
08000FC000
00001FC000
00003F8000
00003F0000
00007E0000
0000FE0000
0001FC0000
0001F80000
0003F80000
0007F00000
0007E00000
000FC00000
001FC00000
003F800000
003F000000
007E000000
00FE000000
01FC000000
01F8000100
03F8000100
07F0000100
07E0000300
0FC0000200
1FC0000600
3F80001E00
3FFFFFFE00
7FFFFFFE00
ENDCHAR

STARTCHAR bracketleft
ENCODING 91
SWIDTH 271 0
DWIDTH 14 0
BBX 12 45 2 -10
BITMAP
7FE0
7FE0
7800
7800
7800
7800
7800
7800
7800
7800
7800
7800
7800
7800
7800
7800
7800
7800
7800
7800
7800
7800
7800
7800
7800
7800
7800
7800
7800
7800
7800
7800
7800
7800
7800
7800
7800
7800
7800
7800
7800
7800
7800
7FE0
7FE0
ENDCHAR

STARTCHAR backslash
ENCODING 92
SWIDTH 281 0
DWIDTH 14 0
BBX 24 36 -5 -1
BITMAP
380000
3C0000
1C0000
1E0000
0E0000
0F0000
070000
078000
038000
03C000
01C000
01E000
00E000
00F000
007000
007800
003800
003C00
001C00
001E00
000E00
000F00
000700
000780
000380
0003C0
0001C0
0001E0
0000E0
0000F0
000070
000078
000038
00003C
00001C
00001E
ENDCHAR

STARTCHAR bracketright
ENCODING 93
SWIDTH 271 0
DWIDTH 14 0
BBX 13 45 0 -10
BITMAP
7FE0
7FE0
01E0
01E0
01E0
01E0
01E0
01E0
01E0
01E0
01E0
01E0
01E0
01E0
01E0
01E0
01E0
01E0
01E0
01E0
01E0
01E0
01E0
01E0
01E0
01E0
01E0
01E0
01E0
01E0
01E0
01E0
01E0
01E0
01E0
01E0
01E0
01E0
01E0
01E0
01E0
01E0
01E0
7FE0
7FE0
ENDCHAR

STARTCHAR asciicircum
ENCODING 94
SWIDTH 469 0
DWIDTH 23 0
BBX 25 18 -1 16
BITMAP
000C0000
001E0000
001E0000
003F0000
007F0000
007F8000
00F38000
00F3C000
01E1E000
01C1E000
03C0F000
0780F000
07807800
0F007800
0F003C00
1E001C00
1C001E00
3C000F00
ENDCHAR

STARTCHAR underscore
ENCODING 95
SWIDTH 500 0
DWIDTH 25 0
BBX 29 3 -2 -6
BITMAP
3FFFFFE0
3FFFFFE0
3FFFFFE0
ENDCHAR

STARTCHAR quoteleft
ENCODING 96
SWIDTH 271 0
DWIDTH 14 0
BBX 10 13 2 22
BITMAP
0300
0400
1800
3000
2000
6000
6000
6600
7F00
7F00
3F00
3F00
0C00
ENDCHAR

STARTCHAR a
ENCODING 97
SWIDTH 500 0
DWIDTH 25 0
BBX 25 25 0 -1
BITMAP
00FF0000
03078000
0E03C000
0E01E000
1E01E000
1E01E000
1E01E000
0E01E000
0001E000
0007E000
001DE000
0071E000
01C1E000
0781E000
0E01E000
1E01E000
3C01E000
3C01E000
3C01E000
3C01E000
3E03E100
3F0DF300
1FF9FE00
0FF0FC00
0780F000
ENDCHAR

STARTCHAR b
ENCODING 98
SWIDTH 552 0
DWIDTH 28 0
BBX 28 37 0 -1
BITMAP
01800000
07800000
3F800000
7F800000
0F800000
07800000
07800000
07800000
07800000
07800000
07800000
07800000
0781E000
078FF800
079FFC00
07BFFE00
07F07F00
07C01F80
07800F80
07800FC0
078007C0
078007C0
078003C0
078003C0
078003C0
078003C0
078003C0
078003C0
07800380
07800780
07800700
07800F00
07800E00
07C01C00
03F07800
00FFE000
001F8000
ENDCHAR

STARTCHAR c
ENCODING 99
SWIDTH 438 0
DWIDTH 22 0
BBX 23 25 0 -1
BITMAP
003E00
01FF80
0383E0
0601F0
0E01F0
1C01F0
3C00F0
380060
380000
780000
780000
780000
780000
780000
7C0000
7C0008
7C0008
3E0010
3F0010
1F8060
1FE0E0
0FFFC0
07FF80
03FF00
00FC00
ENDCHAR

STARTCHAR d
ENCODING 100
SWIDTH 552 0
DWIDTH 28 0
BBX 28 37 1 -1
BITMAP
00001C00
00007C00
0001FC00
00027C00
00003C00
00003C00
00003C00
00003C00
00003C00
00003C00
00003C00
00003C00
007F3C00
01E3FC00
0380FC00
07007C00
0E007C00
0E003C00
1E003C00
3C003C00
3C003C00
3C003C00
3C003C00
7C003C00
7C003C00
7C003C00
7C003C00
3C003C00
3E003C00
3E003C00
3F003C00
1F803C00
0FC07E00
0FE0FFC0
07FFBF00
01FF3C00
007C2000
ENDCHAR

STARTCHAR e
ENCODING 101
SWIDTH 438 0
DWIDTH 22 0
BBX 22 25 0 -1
BITMAP
007E00
01FF80
0707C0
0E03E0
0C01E0
1C01F0
1801F0
3801F0
3FFFF0
3FFFF8
380000
780000
780000
780000
7C0000
3C0000
3C0010
3E0010
3F0030
1F8060
1FE0E0
0FFFC0
07FF80
03FF00
00FC00
ENDCHAR

STARTCHAR f
ENCODING 102
SWIDTH 333 0
DWIDTH 17 0
BBX 22 36 0 0
BITMAP
000F80
003FE0
00E3F0
01C1F0
0180F0
038070
038000
078000
078000
078000
078000
078000
078000
3FFC00
3FFC00
078000
078000
078000
078000
078000
078000
078000
078000
078000
078000
078000
078000
078000
078000
078000
078000
078000
078000
078000
0FC000
7FF800
ENDCHAR

STARTCHAR g
ENCODING 103
SWIDTH 500 0
DWIDTH 25 0
BBX 24 34 1 -10
BITMAP
00FF00
0387FE
0703FE
0E01E0
0E01E0
1E01F0
1E00F0
1E00F0
1E00F0
1F00F0
1F00F0
0F00E0
0F81E0
07C1C0
03E380
03FE00
060000
0E0000
0C0000
1E0000
1FFFE0
1FFFF8
0FFFFC
07FFFE
0C000E
080006
180006
380004
78000C
7C0018
3F0070
1FFFE0
0FFF80
01FC00
ENDCHAR

STARTCHAR h
ENCODING 104
SWIDTH 552 0
DWIDTH 28 0
BBX 28 36 0 0
BITMAP
01800000
0F800000
3F800000
5F800000
07800000
07800000
07800000
07800000
07800000
07800000
07800000
07800000
0781F000
0787F800
079FFC00
07B87C00
07E03E00
07C01E00
07801E00
07801E00
07801E00
07801E00
07801E00
07801E00
07801E00
07801E00
07801E00
07801E00
07801E00
07801E00
07801E00
07801E00
07801E00
07C01F00
0FC03F00
7FF9FFE0
ENDCHAR

STARTCHAR i
ENCODING 105
SWIDTH 271 0
DWIDTH 14 0
BBX 14 36 0 0
BITMAP
0700
0F80
0F80
0F80
0700
0000
0000
0000
0000
0000
0000
0000
0180
0F80
3F80
5F80
0780
0780
0780
0780
0780
0780
0780
0780
0780
0780
0780
0780
0780
0780
0780
0780
0780
0FC0
0FC0
7FF0
ENDCHAR

STARTCHAR j
ENCODING 106
SWIDTH 271 0
DWIDTH 14 0
BBX 17 46 -5 -10
BITMAP
001C00
003E00
003E00
003E00
001C00
000000
000000
000000
000000
000000
000000
000000
000600
003E00
01FE00
003E00
001E00
001E00
001E00
001E00
001E00
001E00
001E00
001E00
001E00
001E00
001E00
001E00
001E00
001E00
001E00
001E00
001E00
001E00
001E00
001E00
001E00
001E00
001E00
001C00
001C00
081C00
3C1800
3E3000
3FE000
0F8000
ENDCHAR

STARTCHAR k
ENCODING 107
SWIDTH 552 0
DWIDTH 28 0
BBX 28 36 0 0
BITMAP
00800000
07800000
1F800000
7F800000
0F800000
07800000
07800000
07800000
07800000
07800000
07800000
07800000
07800000
0781FFC0
07807C00
07807000
0780E000
0781C000
07830000
07860000
078C0000
07980000
07BC0000
07FC0000
07BE0000
079F0000
078F8000
078F8000
0787C000
0783E000
0781F000
0781F800
0780F800
07C07C00
0FC07F00
7FF9FFE0
ENDCHAR

STARTCHAR l
ENCODING 108
SWIDTH 271 0
DWIDTH 14 0
BBX 14 36 0 0
BITMAP
0180
0780
1F80
7F80
0F80
0780
0780
0780
0780
0780
0780
0780
0780
0780
0780
0780
0780
0780
0780
0780
0780
0780
0780
0780
0780
0780
0780
0780
0780
0780
0780
0780
0780
0780
0FC0
7FF0
ENDCHAR

STARTCHAR m
ENCODING 109
SWIDTH 823 0
DWIDTH 41 0
BBX 43 24 -1 0
BITMAP
00C1F007C000
07C3FC1FF000
3FCFFE3FF800
07DC3E70F800
03F01FC07C00
03E00F803C00
03C00F003C00
03C00F003C00
03C00F003C00
03C00F003C00
03C00F003C00
03C00F003C00
03C00F003C00
03C00F003C00
03C00F003C00
03C00F003C00
03C00F003C00
03C00F003C00
03C00F003C00
03C00F003C00
03C00F003C00
03E00F803E00
07E01F807E00
3FFCFFF3FFC0
ENDCHAR

STARTCHAR n
ENCODING 110
SWIDTH 552 0
DWIDTH 28 0
BBX 28 24 0 0
BITMAP
0183E000
0F87F800
3F8FFC00
5F987C00
07A03E00
07C01E00
07801E00
07801E00
07801E00
07801E00
07801E00
07801E00
07801E00
07801E00
07801E00
07801E00
07801E00
07801E00
07801E00
07801E00
07801E00
07C01F00
0FC03F00
7FF9FFE0
ENDCHAR

STARTCHAR o
ENCODING 111
SWIDTH 552 0
DWIDTH 28 0
BBX 26 25 1 -1
BITMAP
001F0000
00FFE000
01C1F000
0700F800
0F007C00
0E003E00
1E001F00
1C001F00
3C000F00
3C000F80
3C000F80
7C000F80
7C000F80
7C000F80
7C000F00
3C000F00
3E000F00
3E000E00
1F000E00
1F001C00
0F801C00
07C03800
03E0E000
01FFC000
003E0000
ENDCHAR

STARTCHAR p
ENCODING 112
SWIDTH 552 0
DWIDTH 28 0
BBX 29 34 -1 -10
BITMAP
0040F000
03C3FC00
1FC7FF00
3FCFFF00
07D81F80
03F00FC0
03E007C0
03C003E0
03C003E0
03C003E0
03C001E0
03C001E0
03C001E0
03C001E0
03C001E0
03C001E0
03C001C0
03C003C0
03C00380
03C00380
03E00700
03F00E00
03F81C00
03DFF000
03C3C000
03C00000
03C00000
03C00000
03C00000
03C00000
03C00000
03C00000
07E00000
3FFC0000
ENDCHAR

STARTCHAR q
ENCODING 113
SWIDTH 552 0
DWIDTH 28 0
BBX 28 34 0 -10
BITMAP
001F0200
007FEE00
01C07E00
03803E00
07003E00
0F001E00
0E001E00
1E001E00
1C001E00
3C001E00
3C001E00
3C001E00
3C001E00
3C001E00
3C001E00
3E001E00
3E001E00
1F001E00
1F001E00
1F803E00
0FE07E00
07FFDE00
03FF9E00
01FE1E00
00301E00
00001E00
00001E00
00001E00
00001E00
00001E00
00001E00
00001E00
00003F00
0001FFE0
ENDCHAR

STARTCHAR r
ENCODING 114
SWIDTH 385 0
DWIDTH 19 0
BBX 20 24 0 0
BITMAP
018780
0F8FC0
3F9FC0
4FB3C0
07C1C0
07C000
078000
078000
078000
078000
078000
078000
078000
078000
078000
078000
078000
078000
078000
078000
078000
07C000
0FC000
7FF800
ENDCHAR

STARTCHAR s
ENCODING 115
SWIDTH 385 0
DWIDTH 19 0
BBX 17 25 2 -1
BITMAP
07E000
1C7C00
383C00
301C00
700C00
700400
780400
7C0400
7E0000
3F8000
1FC000
0FF000
07F800
01FC00
00FE00
003E00
401F00
400F00
600F00
600F00
700E00
780E00
7C1C00
7FF800
01C000
ENDCHAR

STARTCHAR t
ENCODING 116
SWIDTH 333 0
DWIDTH 17 0
BBX 18 31 0 -1
BITMAP
008000
008000
018000
018000
038000
078000
0F8000
3FFC00
7FFC00
078000
078000
078000
078000
078000
078000
078000
078000
078000
078000
078000
078000
078000
078000
078000
078000
078000
07C100
07C200
03FC00
03FC00
00F000
ENDCHAR

STARTCHAR u
ENCODING 117
SWIDTH 552 0
DWIDTH 28 0
BBX 29 24 -1 -1
BITMAP
3FC0FF00
07C01F00
03C00F00
03C00F00
03C00F00
03C00F00
03C00F00
03C00F00
03C00F00
03C00F00
03C00F00
03C00F00
03C00F00
03C00F00
03C00F00
03C00F00
03C00F00
03C00F00
03C01F00
03E02F00
01F0EF90
01FFCFE0
00FF0F80
007E0C00
ENDCHAR

STARTCHAR v
ENCODING 118
SWIDTH 500 0
DWIDTH 25 0
BBX 27 24 -1 -1
BITMAP
7FF03F80
1FC00F00
0F800600
07800C00
07C00C00
03C00800
03C01800
03E01800
01E03000
01E03000
00F02000
00F06000
00F86000
0078C000
0078C000
003C8000
003D8000
003F8000
001F0000
001F0000
000E0000
000E0000
000E0000
00040000
ENDCHAR

STARTCHAR w
ENCODING 119
SWIDTH 719 0
DWIDTH 36 0
BBX 38 24 -1 -1
BITMAP
3FE3FF83F8
0F807E00F0
0F807C0060
07803C0060
07803C00C0
03C01E00C0
03C01E0080
03E01F0180
01E03F0180
01E03F0300
01F0278300
00F0678200
00F047C600
0078C3C600
0078C3CC00
007983EC00
003D81E800
003F01F800
003F00F800
001E00F000
001E00F000
001C007000
000C006000
000C006000
ENDCHAR

STARTCHAR x
ENCODING 120
SWIDTH 500 0
DWIDTH 25 0
BBX 26 23 0 0
BITMAP
3FF3FC00
0FC0F000
07C0E000
03C0C000
03E18000
01F30000
00F30000
00FE0000
007C0000
007C0000
003E0000
003E0000
003F0000
006F8000
00C78000
00C7C000
0183C000
0303E000
0301F000
0600F800
0E00F800
1E00FE00
7F83FF00
ENDCHAR

STARTCHAR y
ENCODING 121
SWIDTH 500 0
DWIDTH 25 0
BBX 26 33 -1 -10
BITMAP
7FF03F80
1F800F00
0F800600
07800C00
07800C00
03C00800
03C01800
01E01800
01E03000
01F03000
00F03000
00F86000
00786000
007C4000
003CC000
003EC000
001F8000
001F8000
000F8000
000F0000
000F0000
00060000
00060000
00060000
000C0000
000C0000
00180000
00180000
0E300000
1FF00000
3FE00000
1FC00000
0F000000
ENDCHAR

STARTCHAR z
ENCODING 122
SWIDTH 438 0
DWIDTH 22 0
BBX 23 23 -1 0
BITMAP
1FFFFC
1FFFFC
1C00F8
1801F0
1801E0
1003E0
0007C0
000F80
000F00
001F00
003E00
007C00
007C00
00F800
01F000
03E000
03E004
07C004
0F8004
0F000C
1F0018
3FFFF8
3FFFF8
ENDCHAR

STARTCHAR braceleft
ENCODING 123
SWIDTH 479 0
DWIDTH 24 0
BBX 17 45 4 -10
BITMAP
000600
001800
003000
006000
00C000
01C000
01C000
03C000
03C000
03C000
03C000
03E000
03E000
01E000
01E000
01E000
01E000
01C000
018000
018000
030000
0C0000
300000
180000
060000
030000
018000
01C000
01C000
01E000
01E000
01E000
01E000
01E000
03C000
03C000
03C000
03C000
01C000
01C000
00C000
00E000
006000
003800
000E00
ENDCHAR

STARTCHAR bar
ENCODING 124
SWIDTH 198 0
DWIDTH 10 0
BBX 7 41 1 -6
BITMAP
38
38
38
38
38
38
38
38
38
38
38
38
38
38
38
38
38
38
38
38
38
38
38
38
38
38
38
38
38
38
38
38
38
38
38
38
38
38
38
38
38
ENDCHAR

STARTCHAR braceright
ENCODING 125
SWIDTH 479 0
DWIDTH 24 0
BBX 17 45 3 -10
BITMAP
300000
0C0000
070000
038000
018000
01C000
01C000
01E000
01E000
01E000
01E000
01E000
03E000
03C000
03C000
03C000
01C000
01C000
00C000
00E000
006000
001800
000600
000C00
003000
006000
00C000
01C000
01C000
03C000
03C000
03C000
03E000
03E000
01E000
01E000
01E000
01E000
01C000
01C000
01C000
018000
030000
060000
380000
ENDCHAR

STARTCHAR asciitilde
ENCODING 126
SWIDTH 542 0
DWIDTH 27 0
BBX 29 8 -1 9
BITMAP
07E00030
0FFC0030
1FFF0030
3FFFE060
303FFFE0
7007FFC0
6000FF80
60003F00
ENDCHAR

STARTCHAR space
ENCODING 160
SWIDTH 250 0
DWIDTH 14 0
BBX 0 0 0 0
BITMAP
ENDCHAR

STARTCHAR quoteleft
ENCODING 161
SWIDTH 271 0
DWIDTH 14 0
BBX 10 13 2 22
BITMAP
0300
0400
1800
3000
2000
6000
6000
6600
7F00
7F00
3F00
3F00
0C00
ENDCHAR

STARTCHAR quoteright
ENCODING 162
SWIDTH 271 0
DWIDTH 14 0
BBX 10 13 1 23
BITMAP
0C00
3F00
3F00
3F80
3F80
1980
0180
0180
0100
0300
0600
0C00
3000
ENDCHAR

STARTCHAR sterling
ENCODING 163
SWIDTH 500 0
DWIDTH 25 0
BBX 26 36 -1 -1
BITMAP
0007F000
001C7800
00383C00
00701C00
00701E00
00E01C00
00E00C00
01E00000
01E00000
01E00000
01E00000
01E00000
01E00000
01E00000
01E00000
01E00000
1FFFC000
1FFFC000
01F00000
01F00000
01F00000
00F00000
00F00000
00E00000
00E00000
00E00000
00E00000
00E00000
00E00000
0FC00100
1FE00100
31FE0600
21FFFE00
231FFC00
3F0FF800
0C03F000
ENDCHAR

STARTCHAR brokenbar
ENCODING 166
SWIDTH 531 0
DWIDTH 27 0
BBX 7 42 10 -7
BITMAP
38
38
38
38
38
38
38
38
38
38
38
38
38
38
38
38
38
38
00
00
00
00
00
00
38
38
38
38
38
38
38
38
38
38
38
38
38
38
38
38
38
38
ENDCHAR

STARTCHAR section
ENCODING 167
SWIDTH 385 0
DWIDTH 19 0
BBX 21 45 -1 -10
BITMAP
007C00
018300
030380
060380
0603C0
0E03C0
0E03C0
0E0180
0F0000
078000
07C000
03E000
03F000
01FC00
03FE00
047F00
081F80
180FC0
1007C0
3003E0
3001E0
3000E0
3800E0
380060
3C0060
1E0060
1F0040
0F80C0
07E080
03F100
01FE00
00FC00
007E00
001F00
000F00
000780
000380
060380
0E0180
0E0180
0E0180
0E0300
060200
030C00
00F800
ENDCHAR

STARTCHAR dieresis
ENCODING 168
SWIDTH 333 0
DWIDTH 17 0
BBX 18 5 -1 29
BITMAP
1C0E00
3E1F00
3E1F00
3E1F00
1C0E00
ENDCHAR

STARTCHAR copyright
ENCODING 169
SWIDTH 760 0
DWIDTH 38 0
BBX 38 36 0 -1
BITMAP
0000FC0000
0007FFC000
001E00F000
0070003800
00C0000E00
0180000700
0300000380
0600FF1180
0C0381F0C0
080E007060
181C003060
103C003020
3038001030
3078001010
2070000010
20F0000018
60F0000018
60F0000018
60F0000018
60F0000018
60F0000018
20F8000010
2078000010
3078000030
303C000830
183C001020
181E002060
0C0F80C0C0
0603FF80C0
07007C0180
0380000300
00C0000E00
0070001C00
001E00F000
0007FFC000
00007C0000
ENDCHAR

STARTCHAR guillemotleft
ENCODING 171
SWIDTH 500 0
DWIDTH 25 0
BBX 25 23 0 1
BITMAP
00100200
00300600
00600C00
00E01C00
01C03800
03C07800
03807000
0700E000
0F01E000
1E03C000
3E07C000
3E07C000
3E07C000
1F03E000
0F01E000
0780F000
03807000
01C03800
01C03800
00E01C00
00600C00
00300600
00100200
ENDCHAR

STARTCHAR logicalnot
ENCODING 172
SWIDTH 667 0
DWIDTH 33 0
BBX 30 15 2 6
BITMAP
3FFFFFF0
3FFFFFF0
3FFFFFF0
00000070
00000070
00000070
00000070
00000070
00000070
00000070
00000070
00000070
00000070
00000070
00000070
ENDCHAR

STARTCHAR hyphen
ENCODING 173
SWIDTH 333 0
DWIDTH 17 0
BBX 15 4 1 10
BITMAP
7FFC
7FFC
7FFC
7FFC
ENDCHAR

STARTCHAR endash
ENCODING 175
SWIDTH 500 0
DWIDTH 25 0
BBX 29 2 -2 11
BITMAP
3FFFFFE0
3FFFFFE0
ENDCHAR

STARTCHAR degree
ENCODING 176
SWIDTH 396 0
DWIDTH 20 0
BBX 17 15 1 20
BITMAP
03E000
0FF800
1FFC00
3C1E00
380E00
700700
700700
700700
700700
700700
380E00
3C1E00
1FFC00
0FF800
03E000
ENDCHAR

STARTCHAR plusminus
ENCODING 177
SWIDTH 667 0
DWIDTH 33 0
BBX 29 35 2 0
BITMAP
00070000
00070000
00070000
00070000
00070000
00070000
00070000
00070000
00070000
00070000
00070000
00070000
7FFFFFF0
7FFFFFF0
7FFFFFF0
00070000
00070000
00070000
00070000
00070000
00070000
00070000
00070000
00070000
00070000
00070000
00070000
00000000
00000000
00000000
00000000
00000000
7FFFFFF0
7FFFFFF0
7FFFFFF0
ENDCHAR

STARTCHAR twosuperior
ENCODING 178
SWIDTH 292 0
DWIDTH 15 0
BBX 17 18 -1 17
BITMAP
07E000
0FF800
187800
103C00
301C00
001C00
001C00
001800
003800
003000
006000
00C000
018000
030000
060200
0C0600
1FFC00
3FFC00
ENDCHAR

STARTCHAR threesuperior
ENCODING 179
SWIDTH 292 0
DWIDTH 15 0
BBX 14 18 0 17
BITMAP
0FC0
1FE0
30F0
2070
0070
0060
0060
00C0
07E0
01F0
0078
0038
0038
0038
0030
0030
7CC0
3F00
ENDCHAR

STARTCHAR acute
ENCODING 180
SWIDTH 333 0
DWIDTH 17 0
BBX 11 8 4 27
BITMAP
0F80
0F00
0F00
1E00
1C00
1800
3000
2000
ENDCHAR

STARTCHAR dieresisacute
ENCODING 181
SWIDTH 333 0
DWIDTH 17 0
BBX 19 8 -1 27
BITMAP
007C00
007800
007000
38F700
7CEF80
7CCF80
7C8F80
390700
ENDCHAR

STARTCHAR afii9936
ENCODING 182
SWIDTH 771 0
DWIDTH 39 0
BBX 40 36 0 0
BITMAP
0000100000
0000300000
01F0380000
03E0380000
03C07C0000
03807C0000
0780FC0000
0700FE0000
0601FE0000
0401BF0000
0001BF0000
00031F8000
00031F8000
00070FC000
00060FC000
000E0FC000
000C07E000
001C07E000
001803F000
001803F000
003801F800
003001F800
007001F800
007FFFFC00
00FFFFFC00
00C0007E00
01C0007E00
0180003F00
0180003F00
0380001F80
0300001F80
0700001F80
0600000FC0
0E00000FE0
1F00001FF0
7FE000FFFC
ENDCHAR

STARTCHAR periodcentered
ENCODING 183
SWIDTH 271 0
DWIDTH 14 0
BBX 8 6 3 14
BITMAP
18
3C
7E
7E
3C
18
ENDCHAR

STARTCHAR afii9937
ENCODING 184
SWIDTH 829 0
DWIDTH 41 0
BBX 44 34 -2 0
BITMAP
0FCFFFFFFE00
0F81FFFFFE00
0F00FC000E00
1E007C000600
1C007C000200
18007C000200
30007C000200
20007C000000
00007C000000
00007C000000
00007C000000
00007C000000
00007C001000
00007C001000
00007C003000
00007FFFF000
00007FFFF000
00007C003000
00007C001000
00007C001000
00007C001000
00007C000000
00007C000000
00007C000000
00007C000000
00007C000040
00007C000040
00007C0000C0
00007C000080
00007C000180
00007C000380
0000FE000F00
0001FFFFFF00
000FFFFFFF00
ENDCHAR

STARTCHAR afii9938
ENCODING 185
SWIDTH 985 0
DWIDTH 49 0
BBX 51 34 -2 0
BITMAP
0FCFFFE03FFF80
0F81FF0007FC00
0F00FE0003F800
1E007C0001F000
1C007C0001F000
18007C0001F000
18007C0001F000
30007C0001F000
00007C0001F000
00007C0001F000
00007C0001F000
00007C0001F000
00007C0001F000
00007C0001F000
00007C0001F000
00007C0001F000
00007FFFFFF000
00007FFFFFF000
00007C0001F000
00007C0001F000
00007C0001F000
00007C0001F000
00007C0001F000
00007C0001F000
00007C0001F000
00007C0001F000
00007C0001F000
00007C0001F000
00007C0001F000
00007C0001F000
00007C0001F000
0000FE0003F800
0001FF0007FC00
000FFFE03FFF80
ENDCHAR

STARTCHAR afii9939
ENCODING 186
SWIDTH 548 0
DWIDTH 27 0
BBX 29 34 -2 0
BITMAP
0F8FFFE0
0F81FF00
0F00FE00
1E007C00
1C007C00
18007C00
30007C00
20007C00
00007C00
00007C00
00007C00
00007C00
00007C00
00007C00
00007C00
00007C00
00007C00
00007C00
00007C00
00007C00
00007C00
00007C00
00007C00
00007C00
00007C00
00007C00
00007C00
00007C00
00007C00
00007C00
00007C00
0000FE00
0001FF00
000FFFE0
ENDCHAR

STARTCHAR guillemotright
ENCODING 187
SWIDTH 500 0
DWIDTH 25 0
BBX 25 23 0 1
BITMAP
30040000
30060000
18030000
0C038000
0E01C000
0701E000
0780E000
03807000
03C07800
01E03C00
01F03E00
00F01E00
01F03E00
01E03C00
03C07800
0380F000
0700E000
0701C000
0E01C000
1C038000
18030000
30060000
30040000
ENDCHAR

STARTCHAR afii9940
ENCODING 188
SWIDTH 792 0
DWIDTH 40 0
BBX 43 36 -3 -1
BITMAP
00000FE00000
0F807FFE0000
1F01F01F8000
1E07C007C000
1C0F8003E000
381F0001F000
303E0000F800
307E00007C00
607C00007E00
00FC00007E00
00F800003F00
01F800003F00
01F800003F00
03F800003F80
03F000001F80
03F000001F80
03F000001F80
03F000001F80
03F000001F80
03F000001F80
03F000001F80
03F000001F80
03F800001F80
01F800003F00
01F800003F00
00F800003F00
00FC00007E00
007C00007C00
007E00007C00
003E0000F800
001F0001F000
000F8003E000
0007C007C000
0001F01F0000
00007FFC0000
00000FE00000
ENDCHAR

STARTCHAR onehalf
ENCODING 189
SWIDTH 823 0
DWIDTH 41 0
BBX 41 36 1 -1
BITMAP
030000030000
0F0000060000
3F00000E0000
0700000C0000
070000180000
070000380000
070000300000
070000600000
070000E00000
070000C00000
070001800000
070003800000
070003000000
070006000000
070006000000
07000C000000
070018000000
3FC01807E000
0000300FF800
000060187800
000060103C00
0000C0301C00
000180001C00
000180001C00
000300001800
000600003800
000600003000
000C00006000
001C0000C000
001800018000
003000030000
007000060200
0060000C0600
00C0001FFC00
01C0003FFC00
018000000000
ENDCHAR

STARTCHAR afii9941
ENCODING 190
SWIDTH 948 0
DWIDTH 47 0
BBX 51 34 -2 0
BITMAP
0FCFFFE003FF80
0F81FE00007C00
0F00FE00007800
1E007E00007000
1C007F0000E000
18003F8000C000
30001F8001C000
20001FC0018000
00000FC0030000
000007E0070000
000003F0060000
000003F80C0000
000001F81C0000
000000FC180000
000000FE300000
0000007E700000
0000003F600000
0000003FC00000
0000001FC00000
0000000F800000
0000000F800000
0000000F800000
0000000F800000
0000000F800000
0000000F800000
0000000F800000
0000000F800000
0000000F800000
0000000F800000
0000000F800000
0000000F800000
0000001FC00000
0000003FE00000
000001FFFC0000
ENDCHAR

STARTCHAR afii9942
ENCODING 191
SWIDTH 792 0
DWIDTH 40 0
BBX 44 35 -5 0
BITMAP
00000FFC0000
0FC07FFF8000
0F81FC0FE000
0F03F003F800
1E07C000FC00
1C0F80007E00
181F80003F00
303F00003F00
207E00001F80
007E00001F80
007E00001FC0
00FE00001FC0
00FC00000FC0
00FC00000FC0
00FC00000FC0
00FC00000FC0
00FC00000FC0
00FC00000FC0
00FE00000FC0
007E00001F80
007E00001F80
003E00001F80
003F00001F00
001F00003E00
000F80007C00
0007C000F800
0003E001F000
0100F807C020
010018060020
018018060060
01FFF807FFE0
01FFF807FFE0
01FFF807FFE0
01FFF807FFE0
01FFF807FFE0
ENDCHAR

STARTCHAR afii9977
ENCODING 192
SWIDTH 333 0
DWIDTH 17 0
BBX 19 36 -1 -1
BITMAP
007C00
007800
007000
00F000
38E700
7CCF80
7C8F80
7D0F80
380700
000000
000000
000000
00C000
07C000
3FC000
07C000
03C000
03C000
03C000
03C000
03C000
03C000
03C000
03C000
03C000
03C000
03C000
03C000
03C000
03C000
03C100
03C200
03C200
03E600
01FC00
00F800
ENDCHAR

STARTCHAR afii9793
ENCODING 193
SWIDTH 771 0
DWIDTH 39 0
BBX 40 36 0 0
BITMAP
0000100000
0000380000
0000380000
00007C0000
00007C0000
0000FC0000
0000FE0000
0000FE0000
0001BF0000
0001BF0000
00039F8000
00031F8000
00071F8000
00060FC000
000E0FC000
000C07E000
000C07E000
001803F000
001803F000
003801F000
003001F800
007001F800
007FFFFC00
007FFFFC00
00C0007E00
00C0007E00
01C0003E00
0180003F00
0380003F00
0300001F80
0300001F80
0600000FC0
0600000FC0
0E00000FE0
1F00001FF0
7FE000FFFC
ENDCHAR

STARTCHAR afii9794
ENCODING 194
SWIDTH 667 0
DWIDTH 33 0
BBX 33 34 0 0
BITMAP
3FFFF80000
07FFFF0000
03F01FC000
01F007E000
01F003F000
01F001F800
01F001FC00
01F000FC00
01F000FC00
01F000FC00
01F000FC00
01F000FC00
01F001F800
01F001F800
01F003F000
01F00FE000
01FFFF8000
01FFFFC000
01F00FF000
01F003F800
01F001FC00
01F000FE00
01F000FE00
01F0007E00
01F0007E00
01F0007E00
01F0007E00
01F000FE00
01F000FC00
01F001FC00
01F003F800
03F00FF000
07FFFFC000
3FFFFE0000
ENDCHAR

STARTCHAR afii9796
ENCODING 195
SWIDTH 667 0
DWIDTH 33 0
BBX 33 34 0 0
BITMAP
3FFFFFFE00
07FFFFFE00
03F0003E00
01F0000600
01F0000600
01F0000200
01F0000200
01F0000100
01F0000000
01F0000000
01F0000000
01F0000000
01F0000000
01F0000000
01F0000000
01F0000000
01F0000000
01F0000000
01F0000000
01F0000000
01F0000000
01F0000000
01F0000000
01F0000000
01F0000000
01F0000000
01F0000000
01F0000000
01F0000000
01F0000000
01F0000000
03F8000000
07FC000000
3FFF800000
ENDCHAR

STARTCHAR afii9797
ENCODING 196
SWIDTH 667 0
DWIDTH 33 0
BBX 34 36 0 0
BITMAP
0000400000
0000600000
0000E00000
0000E00000
0001F00000
0001F00000
0003F00000
0003F80000
0003F80000
0007FC0000
0006FC0000
000EFC0000
000C7E0000
001C7E0000
00183F0000
00383F0000
00383F0000
00301F8000
00701F8000
00600FC000
00E00FC000
00C00FC000
01C007E000
018007E000
038003F000
030003F000
030003F000
070001F800
060001F800
0E0000FC00
0C0000FC00
1C0000FC00
1800007E00
3800007E00
3FFFFFFE00
3FFFFFFF00
ENDCHAR

STARTCHAR afii9798
ENCODING 197
SWIDTH 667 0
DWIDTH 33 0
BBX 34 34 0 0
BITMAP
3FFFFFF800
07FFFFF800
03F0003800
01F0001800
01F0000800
01F0000800
01F0000800
01F0000000
01F0000000
01F0000000
01F0000000
01F0000000
01F0004000
01F0004000
01F000C000
01FFFFC000
01FFFFC000
01F000C000
01F0004000
01F0004000
01F0004000
01F0000000
01F0000000
01F0000000
01F0000000
01F0000100
01F0000100
01F0000300
01F0000200
01F0000600
01F0000E00
03F8003C00
07FFFFFC00
3FFFFFFC00
ENDCHAR

STARTCHAR afii9801
ENCODING 198
SWIDTH 667 0
DWIDTH 33 0
BBX 34 34 0 0
BITMAP
07FFFFFF00
07FFFFFE00
070001FC00
0E0001F800
0C0003F800
0C0007F000
080007E000
08000FC000
00001FC000
00003F8000
00003F0000
00007E0000
0000FE0000
0001FC0000
0001F80000
0003F80000
0007F00000
0007E00000
000FC00000
001FC00000
003F800000
003F000000
007E000000
00FE000000
01FC000000
01F8000100
03F8000100
07F0000100
07E0000300
0FC0000200
1FC0000600
3F80001E00
3FFFFFFE00
7FFFFFFE00
ENDCHAR

STARTCHAR afii9802
ENCODING 199
SWIDTH 823 0
DWIDTH 41 0
BBX 41 34 0 0
BITMAP
3FFF80FFFE00
07FC001FF000
03F8000FE000
01F00007C000
01F00007C000
01F00007C000
01F00007C000
01F00007C000
01F00007C000
01F00007C000
01F00007C000
01F00007C000
01F00007C000
01F00007C000
01F00007C000
01F00007C000
01FFFFFFC000
01FFFFFFC000
01F00007C000
01F00007C000
01F00007C000
01F00007C000
01F00007C000
01F00007C000
01F00007C000
01F00007C000
01F00007C000
01F00007C000
01F00007C000
01F00007C000
01F00007C000
03F8000FE000
07FC001FF000
3FFF80FFFE00
ENDCHAR

STARTCHAR afii9803
ENCODING 200
SWIDTH 771 0
DWIDTH 39 0
BBX 39 36 0 -1
BITMAP
0000FF0000
000FFFC000
001F01F000
007C007C00
00F8003E00
01F0001F00
03E0000F80
07C00007C0
07C00007E0
0FC00007E0
0F800003F0
1F800003F0
1F840043F0
3F840041F8
3F0600C1F8
3F0701C1F8
3F07FFC1F8
3F07FFC1F8
3F07FFC1F8
3F07FFC1F8
3F0701C1F8
3F0600C1F8
1F840041F8
1F840043F0
1F800003F0
0F800003F0
0FC00003E0
07C00007C0
07E00007C0
03E0000F80
01F0001F00
00F8003E00
007C007C00
001F01F000
0007FFE000
0000FE0000
ENDCHAR

STARTCHAR afii9804
ENCODING 201
SWIDTH 385 0
DWIDTH 19 0
BBX 19 34 0 0
BITMAP
3FFF80
07FC00
03F800
01F000
01F000
01F000
01F000
01F000
01F000
01F000
01F000
01F000
01F000
01F000
01F000
01F000
01F000
01F000
01F000
01F000
01F000
01F000
01F000
01F000
01F000
01F000
01F000
01F000
01F000
01F000
01F000
03F800
07FC00
3FFF80
ENDCHAR

STARTCHAR afii9805
ENCODING 202
SWIDTH 823 0
DWIDTH 41 0
BBX 42 34 0 0
BITMAP
3FFF81FFE000
07FC007F0000
03F8003E0000
01F000780000
01F000700000
01F000E00000
01F001C00000
01F003800000
01F007000000
01F00E000000
01F01C000000
01F038000000
01F070000000
01F0E0000000
01F1C0000000
01F7C0000000
01FFE0000000
01F7F0000000
01F3F8000000
01F1FC000000
01F0FE000000
01F07F000000
01F03F800000
01F01FC00000
01F00FE00000
01F007F00000
01F003F80000
01F001FC0000
01F000FE0000
01F0007F0000
01F0003FC000
03F8003FE000
07FC007FF800
3FFF81FFFF80
ENDCHAR

STARTCHAR afii9806
ENCODING 203
SWIDTH 771 0
DWIDTH 39 0
BBX 40 36 -1 0
BITMAP
0000080000
0000180000
00001C0000
00003C0000
00003C0000
00007E0000
00007E0000
0000FF0000
0000FF0000
0000DF8000
0001DF8000
00019F8000
00038FC000
00030FC000
000707E000
000707E000
000E03F000
000E03F000
000C03F000
001C01F800
001801F800
003800FC00
003000FC00
0070007E00
0060007E00
0060003E00
00E0003F00
00C0003F00
01C0001F80
0180001F80
0380000FC0
0300000FC0
0700000FE0
0700000FE0
0F80001FF0
3FF0007FFE
ENDCHAR

STARTCHAR afii9807
ENCODING 204
SWIDTH 990 0
DWIDTH 49 0
BBX 49 34 0 0
BITMAP
3FF8000007FE00
0FF800000FF000
03FC00000FE000
03FC00001FC000
01FE00001FC000
01FE00003FC000
01BE000037C000
01BF000077C000
019F000067C000
019F8000E7C000
018F8000C7C000
018FC001C7C000
0187C00187C000
0187E00187C000
0187E00387C000
0183F00307C000
0183F00707C000
0181F80607C000
0181F80E07C000
0180FC0C07C000
0180FC1C07C000
01807E1807C000
01807E3807C000
01803F3007C000
01803F7007C000
01801F6007C000
01801FE007C000
01801FC007C000
01800FC007C000
01800FC007C000
0180078007C000
03C007800FE000
07E003001FF000
3FFC0300FFFE00
ENDCHAR

STARTCHAR afii9808
ENCODING 205
SWIDTH 823 0
DWIDTH 41 0
BBX 43 34 -1 0
BITMAP
3FF00007FFC0
07F800007800
01FC00003000
00FE00003000
007F00003000
007F80003000
007FC0003000
006FC0003000
006FE0003000
0067F0003000
0063F8003000
0061FC003000
0060FE003000
00607F003000
00603F803000
00601F803000
00600FC03000
00600FE03000
006007F03000
006003F83000
006001FC3000
006000FE3000
0060007F3000
0060003F3000
0060001FB000
0060000FF000
0060000FF000
00600007F000
00600003F000
00600001F000
00600000F000
00F000007000
01F800003000
0FFF00001000
ENDCHAR

STARTCHAR afii9809
ENCODING 206
SWIDTH 667 0
DWIDTH 33 0
BBX 32 34 1 0
BITMAP
3FFFFFF8
3FFFFFF8
3FFFFFF8
3FFFFFF8
3FFFFFF8
38000018
30000008
20000008
20000008
00000000
00000000
01000080
01000080
01000180
01800380
01FFFF80
01FFFF80
01FFFF80
01FFFF80
01800380
01000180
01000080
01000080
00000000
40000004
40000004
40000004
60000004
7000000C
7FFFFFFC
7FFFFFFC
7FFFFFFC
7FFFFFFC
7FFFFFFC
ENDCHAR

STARTCHAR afii9810
ENCODING 207
SWIDTH 771 0
DWIDTH 39 0
BBX 39 36 0 -1
BITMAP
0000FE0000
0007FFE000
001F01F800
007C007C00
00F8003E00
01F0001F00
03E0000F80
07E00007C0
07C00007E0
0FC00007E0
0F800003F0
1F800003F0
1F800003F0
3F800003F8
3F000001F8
3F000001F8
3F000001F8
3F000001F8
3F000001F8
3F000001F8
3F000001F8
3F000001F8
3F800001F8
1F800003F0
1F800003F0
0F800003F0
0FC00007E0
07C00007C0
07E00007C0
03E0000F80
01F0001F00
00F8003E00
007C007C00
001F01F000
0007FFC000
0000FE0000
ENDCHAR

STARTCHAR afii9811
ENCODING 208
SWIDTH 823 0
DWIDTH 41 0
BBX 41 34 0 0
BITMAP
3FFFFFFFFE00
07FFFFFFF000
03F00007E000
01F00007C000
01F00007C000
01F00007C000
01F00007C000
01F00007C000
01F00007C000
01F00007C000
01F00007C000
01F00007C000
01F00007C000
01F00007C000
01F00007C000
01F00007C000
01F00007C000
01F00007C000
01F00007C000
01F00007C000
01F00007C000
01F00007C000
01F00007C000
01F00007C000
01F00007C000
01F00007C000
01F00007C000
01F00007C000
01F00007C000
01F00007C000
01F00007C000
03F8000FE000
07FC001FF000
3FFF80FFFE00
ENDCHAR

STARTCHAR afii9813
ENCODING 209
SWIDTH 604 0
DWIDTH 30 0
BBX 32 34 -1 0
BITMAP
3FFFFC00
07FFFF00
03F01FC0
01F007E0
01F003F0
01F001F8
01F001FC
01F000FC
01F000FC
01F000FC
01F000FC
01F000FC
01F001FC
01F001F8
01F003F8
01F007F0
01F80FE0
01FFFF80
01F1FC00
01F00000
01F00000
01F00000
01F00000
01F00000
01F00000
01F00000
01F00000
01F00000
01F00000
01F00000
01F00000
03F80000
07FC0000
3FFF8000
ENDCHAR

STARTCHAR afii9814
ENCODING 211
SWIDTH 604 0
DWIDTH 30 0
BBX 31 34 -1 0
BITMAP
3FFFFFE0
3FFFFFE0
1F8000F0
0FC00070
0FE00030
07F00010
03F80010
01F80010
00FC0000
00FE0000
007F0000
003F8000
001F8000
000FC000
000FE000
0007E000
0003E000
0001C000
00038000
00070000
000E0000
001C0000
00180000
00300000
00700000
00E00008
01C00018
03800018
07000078
07FFFFF8
0FFFFFF8
1FFFFFF0
3FFFFFF0
3FFFFFF0
ENDCHAR

STARTCHAR afii9816
ENCODING 212
SWIDTH 667 0
DWIDTH 33 0
BBX 33 34 0 0
BITMAP
7FFFFFFF00
7FFFFFFF00
7803E00F00
7003E00700
6003E00300
4003E00100
4003E00100
4003E00100
0003E00000
0003E00000
0003E00000
0003E00000
0003E00000
0003E00000
0003E00000
0003E00000
0003E00000
0003E00000
0003E00000
0003E00000
0003E00000
0003E00000
0003E00000
0003E00000
0003E00000
0003E00000
0003E00000
0003E00000
0003E00000
0003E00000
0003E00000
0007F00000
000FF80000
007FFF0000
ENDCHAR

STARTCHAR afii9817
ENCODING 213
SWIDTH 771 0
DWIDTH 39 0
BBX 41 34 -1 0
BITMAP
3FFF800FFE00
07F80001F000
03F80001E000
01F80001C000
01FC00038000
00FE00030000
007E00070000
007F00060000
003F000C0000
001F801C0000
000FC0180000
000FE0300000
0007E0700000
0003F0600000
0003F8C00000
0001F9C00000
0000FD800000
0000FF000000
00007F000000
00003E000000
00003E000000
00003E000000
00003E000000
00003E000000
00003E000000
00003E000000
00003E000000
00003E000000
00003E000000
00003E000000
00003E000000
00007F000000
0000FF800000
0007FFF00000
ENDCHAR

STARTCHAR afii9818
ENCODING 214
SWIDTH 771 0
DWIDTH 39 0
BBX 37 34 1 0
BITMAP
001FFFC000
0003FE0000
0001FC0000
0000F80000
0000F80000
003FFFE000
00F8F8F800
03E0F83E00
07C0F80F00
0F80F80F80
1F00F807C0
1F00F807C0
3E00F803E0
3E00F803E0
3E00F803F0
7E00F803F0
7E00F803F0
7E00F803F0
7E00F803F0
3E00F803E0
3E00F803E0
3E00F803E0
1F00F807C0
1F00F807C0
0F80F80F80
07C0F80F00
03E0F83E00
00F8F8F800
001FFFC000
0000F80000
0000FC0000
0001FC0000
0003FE0000
001FFFC000
ENDCHAR

STARTCHAR afii9819
ENCODING 215
SWIDTH 771 0
DWIDTH 39 0
BBX 40 34 -1 0
BITMAP
3FFFC03FFC
07FE0007E0
03FC000780
01FE000700
00FE000600
007F000C00
003F001C00
003F803800
001FC07000
000FE0E000
0007E0C000
0007F1C000
0003FB8000
0001FF0000
0000FE0000
0000FE0000
00007F0000
00003F0000
00007F8000
0000FFC000
0001CFE000
000387E000
000307F000
000603F800
000E01F800
001C01FC00
003800FE00
0070007F00
0060003F00
00C0003F80
01C0001FC0
03C0001FE0
0FC0003FF0
3FF800FFFE
ENDCHAR

STARTCHAR afii9820
ENCODING 216
SWIDTH 823 0
DWIDTH 41 0
BBX 41 34 0 0
BITMAP
7807FFF00F00
1E00FF803C00
1F007F007C00
0F003E007800
0F803E00F800
0F803E00F800
0F803E00F800
0F803E00F800
0F803E00F800
0FC03E00F800
0FC03E01F800
0FC03E01F800
07C03E01F800
07C03E01F000
03E03E03F000
01F03E07E000
00F83E0FC000
007FFFFF0000
000FFFF80000
00003E000000
00003E000000
00003E000000
00003E000000
00003E000000
00003E000000
00003E000000
00003E000000
00003E000000
00003E000000
00003E000000
00003E000000
00007F000000
0000FF800000
0007FFF00000
ENDCHAR

STARTCHAR afii9821
ENCODING 217
SWIDTH 771 0
DWIDTH 39 0
BBX 38 35 0 0
BITMAP
0003FF0000
001FFFE000
007F03F800
00FC00FE00
01F0003F00
03E0001F80
07E0000FC0
0FC0000FC0
1F800007E0
1F800007E0
1F800007F0
3F800007F0
3F000003F0
3F000003F0
3F000003F0
3F000003F0
3F000003F0
3F000003F0
3F800003F0
1F800007E0
1F800007E0
0F800007E0
0FC00007C0
07C0000F80
03E0001F00
01F0003E00
00F8007C00
403E01F008
4006018008
6006018018
7FFE01FFF8
7FFE01FFF8
7FFE01FFF8
7FFE01FFF8
7FFE01FFF8
ENDCHAR

STARTCHAR afii9943
ENCODING 218
SWIDTH 385 0
DWIDTH 19 0
BBX 23 43 -2 0
BITMAP
1E00F0
3F01F8
3F01F8
3F01F8
3F01F8
1E00F0
000000
000000
000000
1FFFF0
01FF00
00FE00
007E00
007C00
007C00
007C00
007C00
007C00
007C00
007C00
007C00
007C00
007C00
007C00
007C00
007C00
007C00
007C00
007C00
007C00
007C00
007C00
007C00
007C00
007C00
007C00
007C00
007C00
007C00
007E00
00FE00
01FF00
1FFFF0
ENDCHAR

STARTCHAR afii9944
ENCODING 219
SWIDTH 771 0
DWIDTH 39 0
BBX 41 43 -1 0
BITMAP
000F00780000
001F80FC0000
001F80FC0000
001F80FC0000
001F80FC0000
000F00780000
000000000000
000000000000
000000000000
3FFF800FFE00
07F80001F000
03F80001E000
01F80001C000
01FC00018000
00FC00030000
007E00070000
007F00060000
003F000C0000
001F801C0000
001FC0180000
000FC0300000
0007E0700000
0007F0600000
0003F8E00000
0001F9C00000
0000FD800000
0000FF800000
00007F000000
00003E000000
00003E000000
00003E000000
00003E000000
00003E000000
00003E000000
00003E000000
00003E000000
00003E000000
00003E000000
00003E000000
00003F000000
00007F000000
0000FF800000
000FFFF80000
ENDCHAR

STARTCHAR afii9968
ENCODING 220
SWIDTH 552 0
DWIDTH 28 0
BBX 27 37 1 -1
BITMAP
001F8000
001F0000
001E0000
003C0000
00380000
00300000
00300000
00600000
00400000
00000000
00000000
00000000
01F80000
078C1E00
0F061E00
0E033E00
1E013C00
3E01BC00
3C00BC00
3C00BC00
3C00FC00
7C007800
7C007800
7C007800
7C00F800
7C00F800
7C00F000
7C00F000
3C00F000
3C01E000
3C01E000
3E03F040
1E03D0C0
0E079880
0F0F9F80
03FE0F00
00F80E00
ENDCHAR

STARTCHAR afii9969
ENCODING 221
SWIDTH 500 0
DWIDTH 25 0
BBX 22 36 2 -1
BITMAP
003F00
003E00
003C00
007800
007000
006000
004000
00C000
000000
000000
000000
00FC00
07FF80
0F07C0
1E03E0
3C01E0
3C01C0
3C0000
3C0000
1C0000
0E0000
078000
01FE00
079E00
1E0000
3E0000
3C0000
7C0000
7C00E0
7C00F0
3C01F0
3E01F0
1E03E0
0F07C0
03FF80
007C00
ENDCHAR

STARTCHAR afii9970
ENCODING 222
SWIDTH 604 0
DWIDTH 30 0
BBX 28 46 0 -10
BITMAP
0001F800
0001F000
0003E000
0003C000
00038000
00030000
00060000
00060000
00040000
00000000
00000000
00000000
0F80FC00
1FC1FE00
33E7FF00
21EE1F00
21F80F80
21F00780
01E00780
01E00780
01E00780
01E00780
01E00780
01E00780
01E00780
01E00780
01E00780
01E00780
01E00780
01E00780
01E00780
01E00780
01E00780
01E00780
01E00780
01E00780
00000780
00000780
00000780
00000780
00000780
00000780
00000780
00000780
000007C0
000003C0
ENDCHAR

STARTCHAR afii9971
ENCODING 223
SWIDTH 333 0
DWIDTH 17 0
BBX 16 36 0 -1
BITMAP
03F0
03E0
03C0
0780
0700
0700
0600
0C00
0800
0000
0000
0000
0180
0F80
7F80
0F80
0780
0780
0780
0780
0780
0780
0780
0780
0780
0780
0780
0780
0780
0780
0784
0784
0784
07CC
03F8
01F0
ENDCHAR

STARTCHAR afii9978
ENCODING 224
SWIDTH 500 0
DWIDTH 25 0
BBX 24 36 0 -1
BITMAP
000F80
000F00
000F00
070EE0
0F9DF0
0F99F0
0F91F0
0710E0
000000
000000
000000
180000
3C01C0
7E0060
7F0030
3F0018
3F0018
1F001C
1F000C
0F000C
0F000E
0F000E
0F000E
0F000E
0F000E
0F000E
0F000E
0F000C
0F001C
0F0018
078038
078030
03C070
01E0C0
00FF80
003E00
ENDCHAR

STARTCHAR afii9825
ENCODING 225
SWIDTH 552 0
DWIDTH 28 0
BBX 27 25 1 -1
BITMAP
01F80000
078C1E00
0F061E00
0E033E00
1E013C00
3E01BC00
3C00BC00
3C00BC00
3C00FC00
7C007800
7C007800
7C007800
7C00F800
7C00F800
7C00F000
7C00F000
3C00F000
3C01E000
3C01E000
3E03F040
1E03D0C0
0E079880
0F0F9F80
03FE0F00
00F80E00
ENDCHAR

STARTCHAR afii9826
ENCODING 226
SWIDTH 552 0
DWIDTH 28 0
BBX 25 47 3 -11
BITMAP
00FE0000
03FF8000
0783E000
0F01F000
1E00F000
1C00F800
3C007800
3C007800
3C007800
3C007800
3C007800
3C00F000
3C00F000
3C00E000
3C3DC000
3C7F8000
3C3FE000
3C01F000
3C00F800
3C007C00
3C007C00
3C007C00
3C003E00
3C003E00
3C003E00
3C003E00
3C003E00
3C003E00
3C003C00
3C003C00
3C003C00
3C003800
3E007800
3F00F000
3DC1E000
3CFFC000
3C3E0000
3C000000
3C000000
3C000000
3C000000
3C000000
3C000000
3C000000
3C000000
78000000
78000000
ENDCHAR

STARTCHAR afii9828
ENCODING 227
SWIDTH 500 0
DWIDTH 25 0
BBX 25 34 0 -11
BITMAP
0F001E00
1F801E00
3FC03C00
31E03C00
60E03800
60607800
40607000
40307000
0030E000
0030E000
0030E000
0011C000
0011C000
00118000
001B8000
001B0000
001B0000
001E0000
000E0000
000C0000
000C0000
00080000
000C0000
001C0000
001C0000
003C0000
003C0000
003C0000
003C0000
007C0000
007C0000
00780000
00380000
00300000
ENDCHAR

STARTCHAR afii9829
ENCODING 228
SWIDTH 500 0
DWIDTH 25 0
BBX 24 37 1 -1
BITMAP
01FF00
070FE0
0407F0
0C01F0
0C01F0
0400F0
060000
030000
038000
01C000
00F000
003800
001E00
000F00
001F80
00FFC0
01C3E0
0781F0
0700F8
0E00F8
1E007C
1E007C
3C007C
3C003C
3C003C
3C003C
3C003C
3C003C
3C003C
3E0038
3E0078
1E0070
1F00E0
0F80C0
07C180
03FF00
007800
ENDCHAR

STARTCHAR afii9830
ENCODING 229
SWIDTH 500 0
DWIDTH 25 0
BBX 22 25 2 -1
BITMAP
00FC00
07FF80
0F07C0
1E03E0
3C01E0
3C01C0
3C0000
3C0000
1C0000
0E0000
078000
01FE00
079E00
1E0000
3E0000
3C0000
7C0000
7C00E0
7C00F0
3C01F0
3E01F0
1E03E0
0F07C0
03FF80
007C00
ENDCHAR

STARTCHAR afii9833
ENCODING 230
SWIDTH 438 0
DWIDTH 22 0
BBX 21 45 0 -10
BITMAP
030000
0600E0
0C03E0
0C0FC0
0C1F80
0E3F00
07FC00
00C000
018000
010000
030000
060000
040000
0C0000
080000
180000
100000
100000
300000
300000
200000
200000
600000
600000
600000
600000
600000
600000
200000
300000
380000
1E0000
1FFF80
0FFFE0
07FFE0
01FFF0
000070
000030
000030
000030
000020
000060
007FC0
007F80
003F00
ENDCHAR

STARTCHAR afii9834
ENCODING 231
SWIDTH 604 0
DWIDTH 30 0
BBX 28 34 0 -10
BITMAP
0F80FC00
1FC1FE00
33E7FF00
21EE1F00
21F80F80
21F00780
01E00780
01E00780
01E00780
01E00780
01E00780
01E00780
01E00780
01E00780
01E00780
01E00780
01E00780
01E00780
01E00780
01E00780
01E00780
01E00780
01E00780
01E00780
00000780
00000780
00000780
00000780
00000780
00000780
00000780
00000780
000007C0
000003C0
ENDCHAR

STARTCHAR afii9835
ENCODING 232
SWIDTH 500 0
DWIDTH 25 0
BBX 23 37 1 -1
BITMAP
003C00
00FF00
038380
0301C0
0701E0
0E00E0
0E00F0
1E00F0
1E0078
1C0078
3C0078
3C0078
3C0078
3C007C
7C007C
7C007C
7C007C
7C007C
7FFFFC
7C007C
7C007C
7C007C
7C007C
3C0078
3C0078
3C0078
3C0078
3C0078
1E0070
1E00F0
1E00E0
0E00E0
0701C0
0701C0
03C380
00FE00
003800
ENDCHAR

STARTCHAR afii9836
ENCODING 233
SWIDTH 333 0
DWIDTH 17 0
BBX 16 24 0 -1
BITMAP
0380
0F80
7F80
0F80
0780
0780
0780
0780
0780
0780
0780
0780
0780
0780
0780
0780
0780
0780
0784
0784
0784
07CC
03F8
01F0
ENDCHAR

STARTCHAR afii9837
ENCODING 234
SWIDTH 552 0
DWIDTH 28 0
BBX 29 24 -1 0
BITMAP
00C003C0
03C00FE0
1FC01FE0
27C03FE0
03C060C0
03C0C000
03C18000
03C30000
03C60000
03CC0000
03DC0000
03FE0000
03DF0000
03CF8000
03CF8000
03C7C000
03C3E000
03C1F000
03C0F800
03C0F800
03C07C00
03C03E00
03C03F80
03C07FF0
ENDCHAR

STARTCHAR afii9838
ENCODING 235
SWIDTH 552 0
DWIDTH 28 0
BBX 28 37 0 -1
BITMAP
03800000
07C00000
0FE00000
1FE00000
18700000
10300000
30380000
20180000
00180000
00080000
000C0000
000C0000
000C0000
000C0000
001C0000
001E0000
003E0000
003E0000
007E0000
007B0000
007B0000
00F30000
00F10000
01E10000
01E18000
03C18000
03C08000
07C08000
0780C000
0F80C040
0F00E040
1F006040
1E0070C0
1E007FC0
3C003F80
3C001F00
00000E00
ENDCHAR

STARTCHAR afii9839
ENCODING 236
SWIDTH 552 0
DWIDTH 28 0
BBX 26 34 2 -11
BITMAP
3C00F000
3C00F000
3C00F000
3C00F000
3C00F000
3C00F000
3C00F000
3C00F000
3C00F000
3C00F000
3C00F000
3C00F000
3C00F000
3C00F000
3C00F000
3C00F000
3C00F000
3C00F000
3E01F080
3E02F080
3F0CF900
3FF8FF00
3FF07E00
3BC03C00
38000000
38000000
38000000
38000000
3C000000
7C000000
7C000000
7C000000
7C000000
38000000
ENDCHAR

STARTCHAR afii9840
ENCODING 237
SWIDTH 500 0
DWIDTH 25 0
BBX 25 25 0 -1
BITMAP
06000600
7F001F00
1F001F00
0F801F00
07801F00
07800E00
07C00E00
03C00C00
03C00C00
03E00C00
01E01800
01F01000
01F03000
00F02000
00F86000
00784000
0078C000
007C8000
003D8000
003F0000
003F0000
001E0000
001E0000
001C0000
00080000
ENDCHAR

STARTCHAR afii9841
ENCODING 238
SWIDTH 500 0
DWIDTH 25 0
BBX 23 46 1 -10
BITMAP
0E0000
180700
181F80
183F00
1C7E00
0FF800
030000
020000
060000
040000
0C0000
0C0000
0C0000
0403C0
061FE0
03FFC0
03FF80
070000
0C0000
0C0000
180000
100000
300000
200000
200000
600000
600000
600000
600000
700000
300000
380000
3F03E0
1FFFF0
0FFFF8
07FFFC
01FC1C
00000C
00000C
00000C
00000C
000018
000C38
001FF0
001FE0
000F80
ENDCHAR

STARTCHAR afii9842
ENCODING 239
SWIDTH 552 0
DWIDTH 28 0
BBX 26 25 1 -1
BITMAP
001F0000
00FFE000
01C1F000
0700F800
0F007C00
0E003E00
1E001F00
1C001F00
3C000F00
3C000F80
3C000F80
7C000F80
7C000F80
7C000F80
7C000F00
3C000F00
3E000F00
3E000E00
1F000E00
1F001C00
0F801C00
07C03800
03E0E000
01FFC000
003E0000
ENDCHAR

STARTCHAR afii9843
ENCODING 240
SWIDTH 552 0
DWIDTH 28 0
BBX 27 24 0 -1
BITMAP
03FFFFC0
07FFFFC0
0FFFFFC0
1FFFFFC0
38E07000
30E07000
20E07000
00E06000
00E06000
00E0E000
00E0E000
00E0E000
00C0E000
00C0E000
01C0E000
01C0E000
01C0E000
03C0E040
03C0F040
0780F880
0F807F80
0F807F00
0F803F00
07003E00
ENDCHAR

STARTCHAR afii9845
ENCODING 241
SWIDTH 552 0
DWIDTH 28 0
BBX 25 35 3 -11
BITMAP
007F8000
01FFE000
030FF000
0603F800
0E01F800
1C00FC00
1C007C00
1C003E00
3C003E00
3C003E00
3C001E00
3C001E00
3C001E00
3C001E00
3C001E00
3C001C00
3C001C00
3C001C00
3C003800
3C003800
3E007000
3F00E000
3F81C000
3DFF0000
3C3C0000
3C000000
3C000000
3C000000
3C000000
3C000000
3C000000
3C000000
3C000000
7C000000
78000000
ENDCHAR

STARTCHAR afii9847
ENCODING 242
SWIDTH 438 0
DWIDTH 22 0
BBX 20 34 1 -10
BITMAP
003F80
00FFC0
01FFE0
0787C0
060080
0C0000
180000
100000
300000
300000
200000
200000
600000
600000
600000
600000
600000
300000
300000
380000
1E0C00
1FFF80
0FFFC0
07FFC0
00FFE0
0000E0
000060
000060
000060
000040
0000C0
00FF80
00FF00
007C00
ENDCHAR

STARTCHAR afii9846
ENCODING 243
SWIDTH 604 0
DWIDTH 30 0
BBX 30 24 1 -1
BITMAP
003FFFF0
01FFFFF0
07FFFFF0
0FFFFFF0
1FC0C000
1F007000
3E003800
3E003C00
3C001E00
7C001E00
7C000F00
7C000F00
7C000F80
7C000F80
3C000F80
3C000F80
1E000F80
1E000F00
0F001F00
07801E00
03C03C00
01E07800
00FFE000
001F0000
ENDCHAR

STARTCHAR afii9848
ENCODING 244
SWIDTH 438 0
DWIDTH 22 0
BBX 22 24 -1 -1
BITMAP
03FFF0
07FFF0
0FFFF0
1FFFF0
183800
303800
203800
003000
003000
003000
007000
007000
007000
007000
007000
007000
007000
007020
007860
007840
003FC0
003FC0
001F80
000F00
ENDCHAR

STARTCHAR afii9849
ENCODING 245
SWIDTH 500 0
DWIDTH 25 0
BBX 24 25 0 -1
BITMAP
180000
3E01C0
7E0060
7F0030
3F0018
3F0018
1F001C
1F000C
0F000C
0F000E
0F000E
0F000E
0F000E
0F000E
0F000E
0F000E
0F000C
0F001C
0F0018
078038
078030
03C070
01E0C0
00FF80
003E00
ENDCHAR

STARTCHAR afii9850
ENCODING 246
SWIDTH 604 0
DWIDTH 30 0
BBX 29 34 1 -10
BITMAP
0061F000
03C3FC00
0707FE00
0E071F00
1E0E0F80
3E0E07C0
3C0E03C0
3C0E03E0
7C0E03E0
7C0E01E0
7C0E01E0
7C0E01E0
7C0E01E0
7C0E01E0
7C0E01E0
3C0E01C0
3C0E01C0
3E0E03C0
1E0E0380
0E0E0700
0F0E0F00
078E1C00
01EE7800
007FE000
000E0000
000E0000
000E0000
000E0000
000E0000
000E0000
000E0000
000E0000
000E0000
000E0000
ENDCHAR

STARTCHAR afii9851
ENCODING 247
SWIDTH 552 0
DWIDTH 28 0
BBX 27 33 0 -10
BITMAP
07801F00
0FC01E00
1FE03E00
1FE03C00
30607C00
30307800
2030F800
2030F000
0011E000
0019E000
001BC000
001BC000
000F8000
000F8000
000F0000
000F0000
001E0000
001E0000
003E0000
007E0000
007A0000
00FB0000
00F30000
01F30000
01E10000
03E18040
03C18040
07C1C080
0780E180
0F80FF80
0F007F00
1F007F00
1E001C00
ENDCHAR

STARTCHAR afii9852
ENCODING 248
SWIDTH 667 0
DWIDTH 33 0
BBX 34 35 0 -11
BITMAP
1800000400
7E01C03F00
1F01C07C00
0F01C07C00
0F81C07800
0F81C0F800
0F81C0F800
0F81C0F800
0781C0F800
0781C0F000
0781C0F000
07C1C0F000
07C1C1F000
07C1C1F000
07C1C1F000
03C1C1F000
03C1C1E000
03C1C1E000
01E1C3C000
01E1C3C000
00F1C38000
0071C70000
0039CE0000
000FFC0000
0003E00000
0001C00000
0001C00000
0001C00000
0001C00000
0001C00000
0001C00000
0001C00000
0001C00000
0001C00000
0001C00000
ENDCHAR

STARTCHAR afii9853
ENCODING 249
SWIDTH 667 0
DWIDTH 33 0
BBX 33 25 0 -1
BITMAP
00081C0000
00F80F8000
03E003E000
078000F000
0F00007800
1F01C07C00
1E01C03C00
3E01E03E00
3C03E01E00
3C03E01F00
3C03E01F00
7C03E01F00
7C03E01F00
7C01C01F00
7C01C01F00
7C01C01F00
3C01C01F00
3C00801E00
3C01C01E00
3E01C03E00
1E01603C00
0F03607C00
0F8630F800
03FC1FF000
01F007C000
ENDCHAR

STARTCHAR afii9975
ENCODING 250
SWIDTH 333 0
DWIDTH 17 0
BBX 18 34 -2 -1
BITMAP
1C1C00
3E3E00
3E3E00
3E3E00
1C1C00
000000
000000
000000
000000
000000
006000
03E000
0FE000
03E000
01E000
01E000
01E000
01E000
01E000
01E000
01E000
01E000
01E000
01E000
01E000
01E000
01E000
01E000
01E100
01E100
01E100
01F300
00FE00
007C00
ENDCHAR

STARTCHAR afii9976
ENCODING 251
SWIDTH 500 0
DWIDTH 25 0
BBX 24 35 0 -1
BITMAP
01C1C0
03E3E0
03E3E0
03E3E0
01C1C0
000000
000000
000000
000000
000000
180200
3C01C0
7E0060
7F0030
3F0018
3F0018
1F001C
1F000C
0F000C
0F000E
0F000E
0F000E
0F000E
0F000E
0F000E
0F000E
0F000C
0F001C
0F0018
078038
078030
03C060
03E0C0
00FF80
003C00
ENDCHAR

STARTCHAR afii9972
ENCODING 252
SWIDTH 552 0
DWIDTH 28 0
BBX 26 36 1 -1
BITMAP
0007C000
000F8000
000F0000
000E0000
001C0000
00180000
00180000
00100000
00000000
00000000
00000000
001F0000
00FFE000
01C1F000
0700F800
0F007C00
0E003E00
1E001F00
1C001F00
3C000F00
3C000F80
3C000F80
7C000F80
7C000F80
7C000F80
7C000F00
3C000F00
3E000F00
3E000E00
1E000E00
1F001C00
0F801C00
07C03800
03E0E000
01FFC000
003E0000
ENDCHAR

STARTCHAR afii9973
ENCODING 253
SWIDTH 500 0
DWIDTH 25 0
BBX 24 36 0 -1
BITMAP
001F80
001F00
001E00
003C00
003800
003000
002000
006000
000000
000000
000000
180000
3E01C0
7E0060
7F0030
3F0018
3F0018
1F001C
1F000C
0F000C
0F000E
0F000E
0F000E
0F000E
0F000E
0F000E
0F000E
0F000C
0F001C
0F0018
078038
078030
03C070
01E0C0
00FF80
003E00
ENDCHAR

STARTCHAR afii9974
ENCODING 254
SWIDTH 667 0
DWIDTH 33 0
BBX 33 36 0 -1
BITMAP
0000FC0000
0000F80000
0000F00000
0001E00000
0001C00000
0001800000
0003000000
0003000000
0002000000
0000000000
0000000000
00081C0000
00F80F8000
03E003E000
078000F000
0F00007800
1F01C07C00
1E01C03C00
3E01E03E00
3C03E01E00
3C03E01F00
3C03E01F00
7C03E01F00
7C03E01F00
7C01C01F00
7C01C01F00
7C01C01F00
3C01C01F00
3C00801E00
3C01C01E00
3E01C03E00
1E01603C00
0F03607C00
0F8630F800
03FC1FF000
01F007C000
ENDCHAR
ENDFONT
